<svg xmlns="http://www.w3.org/2000/svg" viewBox="0 0 1030.03 144.21">
  <defs>
    <style>
      .cls-1 {
        fill: #fff;
      }
    </style>
  </defs>
  <title>brush stroke</title>
  <g id="Layer_2" data-name="Layer 2">
    <g id="Layer_1-2" data-name="Layer 1">
      <g>
        <path class="cls-1" d="M540.6,3.54c-.08-.13-1.2-.86-1.68-.49S541.12,4.33,540.6,3.54Z"/>
        <path class="cls-1" d="M516.93,6c-.36-.37-1.93-1.18-2.81-.07C513.69,6.51,517.26,6.36,516.93,6Z"/>
        <path class="cls-1" d="M656.88,12.44a2.08,2.08,0,0,0-2.81-.52C654,12.88,656.07,12.18,656.88,12.44Z"/>
        <path class="cls-1" d="M760.33,14.76l-1.13,0c0,.3,0,.59,0,.89l1.13,0Z"/>
        <path class="cls-1" d="M652.38,12.32c-.08-.12-1.2-.86-1.68-.49S652.9,13.12,652.38,12.32Z"/>
        <path class="cls-1" d="M511.84,8.12c-1.95,1.1,2.88,1.15,0,0Z"/>
        <path class="cls-1" d="M509,8.49c1.68,1.69,1.92-1.3,0,0Z"/>
        <path class="cls-1" d="M351.06,3.82l-1.13,0c0,.29,0,.59,0,.89l1.13,0C351.05,4.41,351.05,4.11,351.06,3.82Z"/>
        <path class="cls-1" d="M706.91,13.78l-1.12,0v.89l1.12,0C706.9,14.38,706.91,14.08,706.91,13.78Z"/>
        <path class="cls-1" d="M643.35,14.31c1-.08,1.3-.73,1.15-1.75-1.17-.22-1.49.26-2.25.38C642.43,13.53,643.22,13.67,643.35,14.31Z"/>
        <path class="cls-1" d="M706.32,15.55c-2.82-1.65-3.11,1.07,0,0Z"/>
        <path class="cls-1" d="M655.16,14.18c1.68,1.69,1.92-1.3,0,0Z"/>
        <path class="cls-1" d="M853.59,20.82c-2.07-1.61-2.87,1.14,0,0Z"/>
        <path class="cls-1" d="M522.45,12.86c-.36-.47-1.29-.5-1.1-1.37C519.5,11.69,520.46,13.19,522.45,12.86Z"/>
        <path class="cls-1" d="M734.4,18.52c-3.18-1.68-2.5,1.07,0,0Z"/>
        <path class="cls-1" d="M402.69,10.55A1.6,1.6,0,0,0,401,9.61,1.57,1.57,0,0,0,402.69,10.55Z"/>
        <path class="cls-1" d="M401,11.39c1.82-1-1.95-1.85,0,0Z"/>
        <path class="cls-1" d="M626.42,17.87c.17-.7-3-.71-1.7.4C624.51,18.09,626.42,17.84,626.42,17.87Z"/>
        <path class="cls-1" d="M114.68,12.66c.2-.79-3.13-.88-2.25.38C113.6,13.26,113.92,12.78,114.68,12.66Z"/>
        <path class="cls-1" d="M104.55,13.27c-1.44,0-2.9,0-2.83,1.27,1,0,1.17.58,2.24.5C103.9,14.24,104.67,14.13,104.55,13.27Z"/>
        <path class="cls-1" d="M181.54,17.57c-1.19-.58-1.61-1.73-3.35-1.88C178.66,16.8,179.47,17.66,181.54,17.57Z"/>
        <path class="cls-1" d="M97.18,16.65c1.68,1.69,1.92-1.31,0,0Z"/>
        <path class="cls-1" d="M81.42,17.56c-.35-1.34-1.21.4-2.25-.06C79.24,18.61,81.07,17.68,81.42,17.56Z"/>
        <path class="cls-1" d="M83,21.62c-.76-1.31-2.78.05-3.38.35C80.61,23.44,81.15,20.85,83,21.62Z"/>
        <path class="cls-1" d="M117.88,23.44c-1.12-.18-1.76,0-1.7.85C117.38,23.09,117.86,26.12,117.88,23.44Z"/>
        <path class="cls-1" d="M62.12,28.19c2.08.38,2.43-.69,4.51-.32,0-.44-.69-.36-1.12-.48a2.11,2.11,0,0,0,.59-1.76c-.48-.1-.53.15-.57.43-.16,1.14-1-.64-2.25-.06C64.07,27.7,61.72,26.81,62.12,28.19Z"/>
        <path class="cls-1" d="M62.71,26.42c-.45-1.31-1.42.55-2.81-.07C60.29,27.9,61.59,26.69,62.71,26.42Z"/>
        <path class="cls-1" d="M103.74,28.42l1.69,0c0-.3,0-.59,0-.89l-1.69-.05C103.75,27.82,103.74,28.12,103.74,28.42Z"/>
        <path class="cls-1" d="M54.78,29.78c-.09-.38.23-.42.57-.43.24-.86-2.55-.72-1.69.4Z"/>
        <path class="cls-1" d="M87.39,30.65c-.74.14-.89.76-1.7.85C85.9,32.61,87.87,31.58,87.39,30.65Z"/>
        <path class="cls-1" d="M56.45,31.16c.22,1.24,1.76.07,1.14-.86C57,30.39,57.19,31.18,56.45,31.16Z"/>
        <path class="cls-1" d="M49.14,31c1.67,1.69,1.92-1.31,0,0Z"/>
        <path class="cls-1" d="M48.58,31C47,30.72,48,32.6,46.86,32.69,47.8,34.15,48.41,31.61,48.58,31Z"/>
        <path class="cls-1" d="M18.14,35c-1.68-1.69-1.92,1.31,0,0Z"/>
        <path class="cls-1" d="M17.54,37.25c-.11,1,2,.26,2.8.53C20.45,36.81,18.35,37.52,17.54,37.25Z"/>
        <path class="cls-1" d="M104.09,40.91c-2.1,1.29,1.69,1.54,0,0Z"/>
        <path class="cls-1" d="M10,50c-.4-.8-1-.09-1.69,0C8.73,50.74,9.35,50,10,50Z"/>
        <path class="cls-1" d="M966.76,81.81l-1.68,0,0,.9,1.69,0C966.75,82.4,966.76,82.11,966.76,81.81Z"/>
        <path class="cls-1" d="M961.69,82.12c1.68,1.69,1.92-1.31,0,0Z"/>
        <path class="cls-1" d="M2.15,83.66c.61-.1.39-.88,1.14-.87C2.81,81.58.79,83.11,2.15,83.66Z"/>
        <path class="cls-1" d="M20.1,86.37c-1.17.21-1.2.66-.58,1.32l1.12,0A1.85,1.85,0,0,1,20.1,86.37Z"/>
        <path class="cls-1" d="M956.66,114.53c-.56,2.07,2.61.86,0,0Z"/>
        <path class="cls-1" d="M36.21,98.83c-.29,1.38,1.38,1.64,2.23,1C38.32,99,37.49,98.75,36.21,98.83Z"/>
        <path class="cls-1" d="M854.1,126.5l-1.13,0c-.28,1,.8.87,1.68.93C854.54,127.05,854.09,127,854.1,126.5Z"/>
        <path class="cls-1" d="M46.21,106.24c-.06-1-2.39-.26-3.37-.54C42.9,106.68,45.23,106,46.21,106.24Z"/>
        <path class="cls-1" d="M52.34,109.52c1.23.11,1.79-.32,1.71-1.29l-1.69,0C52.35,108.63,52.35,109.07,52.34,109.52Z"/>
        <path class="cls-1" d="M811.28,130.7c-.82,2,1.83,1.26,3.35,1.43a1.86,1.86,0,0,1-.54-1.35C813,131.59,812.68,130.79,811.28,130.7Z"/>
        <path class="cls-1" d="M740.43,129.71c-3.6-1.59-2.31,1.29,0,0Z"/>
        <path class="cls-1" d="M61.29,112.43c0,1.33,3.33,1.29,2.82-.36C63.1,112.88,62.48,111.49,61.29,112.43Z"/>
        <path class="cls-1" d="M832.05,133c-2.61-.46.36,1.48-1.15,1.31.18.61,1.41.41,2.25.5C832.92,134.15,831.38,134.43,832.05,133Z"/>
        <path class="cls-1" d="M853.4,134.51c.45,1.6,1.39.09,3.37.53C856.22,133.78,854.51,134.41,853.4,134.51Z"/>
        <path class="cls-1" d="M850,134c-.69.18-1.17.54-1.15,1.31C850.84,135.72,850.83,134.65,850,134Z"/>
        <path class="cls-1" d="M834.85,134c.22,1,3,.43,3.37.09C837.73,132.87,836.46,134.68,834.85,134Z"/>
        <path class="cls-1" d="M818,134.45a2.06,2.06,0,0,0,2.8.52C820.28,133.46,819.73,134.72,818,134.45Z"/>
        <path class="cls-1" d="M529.51,130.31c1.68,1.69,1.91-1.31,0,0Z"/>
        <path class="cls-1" d="M516,130.83c.3,2.26,2.78,0,3.94.11C519.87,130.2,516.09,130.1,516,130.83Z"/>
        <path class="cls-1" d="M69,120.22c.74-.14.89-.76,1.7-.85C70.53,118.26,68.56,119.29,69,120.22Z"/>
        <path class="cls-1" d="M505.87,131c-.82.36-1.79.62-1.71,1.74,1.58.41,1.46-.59,2.82-.37C506.62,131.91,505.69,131.88,505.87,131Z"/>
        <path class="cls-1" d="M496.86,132.11c1.26,1.19,2.9.7,4.49.12C500.6,131.06,497.91,132,496.86,132.11Z"/>
        <path class="cls-1" d="M207.32,124.36c-2.09,1.3,1.69,1.55,0,0Z"/>
        <path class="cls-1" d="M89.81,122.56c1-.3.09-.81,0-1.34C88.82,121.52,89.74,122,89.81,122.56Z"/>
        <path class="cls-1" d="M71.24,123c.69-.17,1.17-.53,1.15-1.3C71.69,121.83,71.22,122.19,71.24,123Z"/>
        <path class="cls-1" d="M69,122.45c-.21-.18,1.7-.43,1.69-.4C70.86,121.34,67.66,121.35,69,122.45Z"/>
        <path class="cls-1" d="M147.15,124.09a2.71,2.71,0,0,0,2.24,1C149.26,124.26,148.44,124,147.15,124.09Z"/>
        <path class="cls-1" d="M399,131.72c1.21,1.39,3.61-.42,0,0Z"/>
        <path class="cls-1" d="M393.37,132c1.3,1.47,2.3-1.5,0,0Z"/>
        <path class="cls-1" d="M217.41,127.31c-1.75.06-1.79,1.53-2.3,2.61C216.12,129.25,218.58,128.42,217.41,127.31Z"/>
        <path class="cls-1" d="M343.87,132l1.13,0v-.89l-1.12,0C343.88,131.44,343.88,131.73,343.87,132Z"/>
        <path class="cls-1" d="M70.08,125.15c.22,1.24,1.77.07,1.14-.86C70.61,124.39,70.82,125.17,70.08,125.15Z"/>
        <path class="cls-1" d="M289.33,131c-.12-1.57-2.5.74-2.24-.51C285,131.36,289,131.84,289.33,131Z"/>
        <path class="cls-1" d="M271.9,131c1.09-.8,1,.3,2.81.08C275.59,129.72,271.06,129.6,271.9,131Z"/>
        <path class="cls-1" d="M102,131.36c.78,1.34,1.25.42,3.36,1C105,131.38,103.11,130.54,102,131.36Z"/>
        <path class="cls-1" d="M132.92,134.41c-.13-.49-1.11-.33-1.11-.92C130.28,133.84,132.25,135.48,132.92,134.41Z"/>
        <path class="cls-1" d="M232.42,137.52c-.7.18-1.16.54-1.15,1.31.91.14,1-.4,1.7-.41C232.87,138.06,232.41,138,232.42,137.52Z"/>
        <path class="cls-1" d="M91.28,135.53c1.3,1.47,2.3-1.51,0,0Z"/>
        <path class="cls-1" d="M100.27,136.22c-.68,1.52,3.1,2.15,2.25.06C101.76,136.25,101,136.23,100.27,136.22Z"/>
        <path class="cls-1" d="M189.07,140.37c-.62.1-.4.88-1.14.87.83,1.36,2.47-.31,3.93.1C191.16,140.16,189.19,141.07,189.07,140.37Z"/>
        <path class="cls-1" d="M130.6,138.81c-.44,1.35,1,1.34.51,2.69l3.38.09C133.82,139.84,133.22,139.66,130.6,138.81Z"/>
        <path class="cls-1" d="M116,139.31c0,1.14,1.86.94,3.35,1C119.88,138.69,117.12,139.61,116,139.31Z"/>
        <path class="cls-1" d="M168.21,142.93c.14,1,1.49,1.07,2.24.51C170.29,142.83,169.05,143,168.21,142.93Z"/>
        <path class="cls-1" d="M165.94,144.21c1-.3.1-.81,0-1.34C165,143.17,165.87,143.68,165.94,144.21Z"/>
        <path class="cls-1" d="M512.52,1c1.41-.15-.52-1.28-1.67-.93C511,.71,512.52.26,512.52,1Z"/>
        <path class="cls-1" d="M548.47,4.19c.09.38-.23.42-.57.43.06,1,1.42-.54,2.81.08,1.24-.41-2.33-.85-3.36-1C547.35,4.15,548,4.08,548.47,4.19Z"/>
        <path class="cls-1" d="M544,4.07Z"/>
        <path class="cls-1" d="M854.85,125.84c-.66.39.3.24,0,0Z"/>
        <path class="cls-1" d="M803.54,20.37c-1.92-1.38-3,1,0,0Z"/>
        <path class="cls-1" d="M106.5,31.61c1.35-.36-1.2-1.39-2.23-1.4C104,31.44,106.36,30.68,106.5,31.61Z"/>
        <path class="cls-1" d="M501.18,6.49c1.46,1.15,3.28-1.19,0,0Z"/>
        <path class="cls-1" d="M698.48,13.55c-1.13.72-.71-.05-2.25-.06C696.4,14,698.87,15.27,698.48,13.55Z"/>
        <path class="cls-1" d="M676,15.18c3.38-.43-2-3.83-2.23-1.4C676,12.75,674.51,14.28,676,15.18Z"/>
        <path class="cls-1" d="M483.13,9.58c.76.09.25-2.48-1.65-1.83C481.63,8.66,482.58,9,483.13,9.58Z"/>
        <path class="cls-1" d="M669.92,16.38c.17.17.27.3.38.43-.91.1-.95-.45-1.67-.49-.79.84,2.46,1.35,2.21,2.29.46-.37,1.54-.22,1.7-.85l-.13-.33a9.07,9.07,0,0,0,2,.86h.1a.3.3,0,0,0,.31-.17.26.26,0,0,0-.2-.34,8.52,8.52,0,0,1-1.42-.6.26.26,0,0,1,.48.16c1.53-.36-.44-2-1.11-.92l-.17.08a4.21,4.21,0,0,0-.94-1.22c0-.53.54-.62,1.14-.65-.68-1.79-3,.21-3.92-1a1.83,1.83,0,0,0-1.15,1.75C669.45,14.87,668.77,16.32,669.92,16.38Z"/>
        <path class="cls-1" d="M506.18,10.64c-3.71-.87,4.53,1.26,0,0Z"/>
        <path class="cls-1" d="M336.94,7c1.74-.41-1.21-.77-1.1-1.37C333.7,6.34,337.05,6.41,336.94,7Z"/>
        <path class="cls-1" d="M459.5,10.29Z"/>
        <path class="cls-1" d="M703.48,17.25c.82.12,1.24.85,3.36,1C706.93,16.88,703.94,16.9,703.48,17.25Z"/>
        <path class="cls-1" d="M666.92,17.61l-1.13,0C668.16,19.69,667.22,13.23,666.92,17.61Z"/>
        <path class="cls-1" d="M455,12.84c-.17-.61-1.4-.41-2.24-.51,0,.66,2.34,1.48,0,1.34-1.76.52,1.58.61,1.68.05C453.76,13.15,453.91,12.79,455,12.84Z"/>
        <path class="cls-1" d="M110.17,13.43c1.48-.87-1.82-1.09-2.8-.52C107.7,14.53,110,12,110.17,13.43Z"/>
        <path class="cls-1" d="M108.29,25c-.11-1.15-1,.59-2.25-.06.6.43.15,1.65,1.67,1.38C107.67,25.66,107.64,25,108.29,25Z"/>
        <path class="cls-1" d="M109.39,26.34c-1.16-1.52-1.65,1.29-3.38.8C106.83,28.37,108.45,26.49,109.39,26.34Z"/>
        <path class="cls-1" d="M79.63,23.76c-2.67.63-.79,2.18,0,0Z"/>
        <path class="cls-1" d="M101,25.67c-2.22,2.28,0,3.58,0,0Z"/>
        <path class="cls-1" d="M57.61,29c.09.38-.23.41-.57.43,0,.68,2.65-.16,3.38-.36-1-1.66-2-1-4.48-1C55.66,29,56.73,28.9,57.61,29Z"/>
        <path class="cls-1" d="M19.2,38.64c.16.61,1.41.4,2.24.5-.63.54-.5.91.55.91C21.77,38.48,20.84,38.13,19.2,38.64Z"/>
        <path class="cls-1" d="M948.49,63.93l0,1.79c1.41.6,1.77-.19,2.25.5.85-.37-.15-.67.59-1.77C950,63.76,950.27,63.48,948.49,63.93Z"/>
        <path class="cls-1" d="M37.67,44a.28.28,0,0,0-.56,0c-.48.07-.53-.19-.55-.46C34.82,44.07,37.16,44.92,37.67,44Z"/>
        <path class="cls-1" d="M946.72,69.68Z"/>
        <path class="cls-1" d="M950.09,69.77c-1.41.26.81,1.38,1.09,1.81C952.71,71.22,949.92,70.55,950.09,69.77Z"/>
        <path class="cls-1" d="M945.56,71.43c.84,2.13,2.78.67,0,0Z"/>
        <path class="cls-1" d="M10.34,64.26c1.18.58,1.61,1.72,3.35,1.87.85-1.67-2.52-.15-1.66-1.82Z"/>
        <path class="cls-1" d="M2.78,79.66a3.13,3.13,0,0,0-1.68-.49c.19.59,1,.73,1.1,1.37.61-.1.4-.88,1.14-.87C3.24,79.17,2.78,79.41,2.78,79.66Z"/>
        <path class="cls-1" d="M.43,85.84c-1-.16-.07,1.73,1.09,1.37l0-1.34C1,86.13.53,86.38.43,85.84Z"/>
        <path class="cls-1" d="M4.89,88.19c-1.76,1,1.22-.77,1.11.48C8.14,88.48,4.81,86.82,4.89,88.19Z"/>
        <path class="cls-1" d="M47.84,106.05a.67.67,0,0,0-.8.25.46.46,0,0,0,.34.64,4.83,4.83,0,0,0,1.49.27,4.24,4.24,0,0,0,2.61-.83c1.93-.2,1.55,1.35,3.71,1-.43-1-.45-1.49-.51-3.58-1.46.22-2-.24-1.66-1.39-.81.51-.8,2-2.18.9-.09-.14-.19-.28-.26-.4s-.26-.43-.4-.64l-.24-.19a2.41,2.41,0,0,0-2-.07.5.5,0,0,0-.34.72.78.78,0,0,0,.92.28.81.81,0,0,1,.55-.06l.26.4a6.53,6.53,0,0,0,.46.71l-.19,0c.48.37.32,1.23,1.11,1.37l.2,0A3.11,3.11,0,0,1,47.84,106.05Z"/>
        <path class="cls-1" d="M853.46,131.39c.45-.08.57-.44,1.13-.42,0-.3,0-.59,0-.89-.48-.09-.53.16-.57.43-.49-.21-1-.42-1.11-.92C851.26,129.94,854.22,130.29,853.46,131.39Z"/>
        <path class="cls-1" d="M148.89,121c-3.39,2.15,1.27-.81,0,0Z"/>
        <path class="cls-1" d="M509.25,131.1a9.46,9.46,0,0,0-1.14.86c.06,0,0-.38,0-.44C507.39,134.09,511.14,131.42,509.25,131.1Z"/>
        <path class="cls-1" d="M61.72,120.47l.59.06Z"/>
        <path class="cls-1" d="M62.31,120.53Z"/>
        <path class="cls-1" d="M409,142.24c.46,2.82-.13-.78,0,0Z"/>
        <path class="cls-1" d="M244.22,138.28c-1.59-.78-3.19,1.77,0,0Z"/>
        <path class="cls-1" d="M497.51,7a.55.55,0,0,0,.31-.07,2.6,2.6,0,0,1,.63-.24,3.73,3.73,0,0,0,.44-.14.37.37,0,0,0,.22-.54.61.61,0,0,0-.68-.19,2.67,2.67,0,0,1-.34.11,3.66,3.66,0,0,0-.87.34.36.36,0,0,0-.11.56A.54.54,0,0,0,497.51,7Z"/>
        <path class="cls-1" d="M488,7.12a4.42,4.42,0,0,1,1.35.2,5.54,5.54,0,0,0,1.3.25,3.07,3.07,0,0,0,.59-.05l.18,0L491.7,7a.31.31,0,0,0-.2-.42.45.45,0,0,0-.53.16l-.09.16a3.69,3.69,0,0,1-1.27-.2,4.46,4.46,0,0,0-1.71-.23.34.34,0,0,0-.34.35A.4.4,0,0,0,488,7.12Z"/>
        <path class="cls-1" d="M430.85,8.28H431A12.77,12.77,0,0,1,434.8,9a.77.77,0,0,0,.25,0,.7.7,0,0,0,.65-.33c.14-.28,0-.59-.38-.72a12.9,12.9,0,0,0-4.47-.82.61.61,0,0,0-.68.54A.63.63,0,0,0,430.85,8.28Z"/>
        <path class="cls-1" d="M450.24,10.05a4.85,4.85,0,0,1,2.77,0,8.63,8.63,0,0,0,1.68.25,3.61,3.61,0,0,0,1.12-.13.48.48,0,0,0,.36-.66.73.73,0,0,0-.84-.31,4.34,4.34,0,0,1-2-.14,6.17,6.17,0,0,0-3.66,0,.46.46,0,0,0-.29.69A.76.76,0,0,0,450.24,10.05Z"/>
        <path class="cls-1" d="M252.53,8.7c1.61.83,3.38.52,4.94.25l.57-.1a3.58,3.58,0,0,0,1.52.82,5.06,5.06,0,0,1,.8.34.73.73,0,0,0,.32.09.66.66,0,0,0,.47-.18.4.4,0,0,0-.14-.63,6.38,6.38,0,0,0-1-.43c-.61-.21-1-.36-1.17-.69l-.19-.32-.44.06c-.32,0-.66.1-1,.17-1.47.26-2.85.5-4.07-.13a.66.66,0,0,0-.77.13A.4.4,0,0,0,252.53,8.7Z"/>
        <path class="cls-1" d="M101.55,41.34a5.49,5.49,0,0,0-1,.09c-.21,0-.44.06-.71.08s-.48.21-.45.43a.49.49,0,0,0,.49.37h.06c.3,0,.57-.06.82-.1a4.83,4.83,0,0,1,.82-.08.44.44,0,0,0,.5-.39C102.05,41.52,101.85,41.38,101.55,41.34Z"/>
        <path class="cls-1" d="M844.52,134.46c-.38.08-.66-.08-1.21-.49a2.85,2.85,0,0,0-2.45-.71.47.47,0,0,0-.41.6.65.65,0,0,0,.77.35c.41-.09.69.06,1.25.48a3.25,3.25,0,0,0,1.83.77,2.46,2.46,0,0,0,.53,0c.33-.06.53-.32.44-.59A.62.62,0,0,0,844.52,134.46Z"/>
        <path class="cls-1" d="M535.41,130.33a6.56,6.56,0,0,0-1.35.12l-.41.06c-.24,0-.41.2-.37.4a.42.42,0,0,0,.43.31h.07l.48-.08a6,6,0,0,1,1.14-.1.42.42,0,0,0,.46-.35A.43.43,0,0,0,535.41,130.33Z"/>
        <path class="cls-1" d="M997.67,41.82c.11.41-.14,1,.69,1.06.16-.42.79-.19,1.42,0C999.92,42.16,999.22,41.8,997.67,41.82Z"/>
        <path class="cls-1" d="M970.34,64c-3.37-1.06-1.73,1.09,0,0Z"/>
        <path class="cls-1" d="M942.62,67.42c-.69,1.24,2.78.56,4.24.81C947.56,67,944.08,67.67,942.62,67.42Z"/>
        <path class="cls-1" d="M951.72,75c-1.79-.42-4.06.62-2.15,1C949.31,75.1,952.8,76.21,951.72,75Z"/>
        <path class="cls-1" d="M962.27,80.1c-1-.42-5.61-.6-5,.9C959.57,81,960.48,80.32,962.27,80.1Z"/>
        <path class="cls-1" d="M954.49,36.15v-.34l-.36.16Z"/>
        <path class="cls-1" d="M953.78,35.79v.35l.35-.17Z"/>
        <path class="cls-1" d="M963,79.76c0-.34.58-.39.72-.67l-1.2,0a2.18,2.18,0,0,0-1.88-.54c-.07.82.62,1.17,1.3,1.19.62.51,1.74.8.33,1.42,2.26.36,2.23-.47,2.85-1C964.28,80.09,963.1,80.17,963,79.76Z"/>
        <path class="cls-1" d="M902.44,18.47a2.67,2.67,0,0,0,.83-.23l-.15.34c-.16.72.52.78.54,1.35.66-.05.5-.8.59-1.32,1.41-.54,2.71,1.07,2.81.08l-.08-.21.58.34a.28.28,0,0,0,.19.38l.15,0a.38.38,0,0,0,.35-.16l.23-.44-.48-.27c-.11-.05-.25-.15-.37-.22.25-1.47-1.18-1.66-2.78-1.73l0,.09a4.53,4.53,0,0,0-.34-.55.65.65,0,0,0-.74-.16.37.37,0,0,0-.18.58,4.19,4.19,0,0,1,.29.49l-.13,0c-.32.4-1.05.46-1.11,1.08a.64.64,0,0,1-.58-.17.42.42,0,0,0-.49-.08.25.25,0,0,0-.09.39A1.34,1.34,0,0,0,902.44,18.47Z"/>
        <path class="cls-1" d="M1029.52,41.1c-3.75-.77-7.77-1.23-11.66-1.67-2.68-.31-5.2-.61-7.62-1l.25-.08c-6.16-2.16-18.49-3.16-24.75-4.14-7.48-2.17-11.84-2.27-19.81-3.65,0-.46,1.25-.29,1.43-.66-3.82-.19-1.74.65-5,.91-1.47-.23-1.5-.58-.69-1.06-3.82,1.13-4.67-1.68-7.8-.21-6.42-3.05-20.19-.71-29-3.9a72.23,72.23,0,0,1-7.28-.21,1.55,1.55,0,0,0-.31-.46,10.47,10.47,0,0,1,1.34-.67.18.18,0,0,0,.1-.27.3.3,0,0,0-.34-.09,12.57,12.57,0,0,0-1.6.8h-.26c-.92-.62-.84-2-1.64-2.71-.82.47-1.38.44-1.67-.5-1.79.49-1.82,2.42-4,2.57-2.1-2.78-4.83-1-6.69-1.51v-.67a.55.55,0,0,0-.59-.49.53.53,0,0,0-.6.46v.65c-1-.24-1-1.28-2.76-1a9.48,9.48,0,0,1-2.29,2.17c-.51-.78-2.27-1-1.1-1.82H895a4.37,4.37,0,0,0,.32-.6,2.74,2.74,0,0,1,.46-.79.22.22,0,0,0-.06-.36.39.39,0,0,0-.45,0,3,3,0,0,0-.56.93l-.18.33c-1.42.07-2.67,0-2.09-1.4-.56,1.35-2.14,1.84-2.31,3.5-4.49,0-2.69-4.71-6.1-5.51-1.19.36-1.68,1.31-3.39,1.24,3.16.54-1,2.24,2.2,2.74-4.29-.51-10.16.37-15.17-.85-.22-.05.31-.67.57-.43-.22-1.24-1.77-.07-1.14.86-3.62-.11-6.07-.17-6.77,1.15-4.59-.66-9.69-.09-14.6-1.28,1.21,1.53-1.51,1.39-2.83.82-.47-.35.3-2.4-2.21-2.29,0,.64.07,1.27-.59,1.32l-.29.66-.27-.67c-1-.15-1.15.39-.56.43-.14.63-1.69.11-1.7.84-.46-.09-.56-.46-1.13-.47l-.08.2a2.89,2.89,0,0,0-1.76-.86.5.5,0,0,0-.6.28c-.07.21.09.43.36.49a2.24,2.24,0,0,1,1,.36c.2.86-.93.62-1.1,1.19,0,0,0-.06-.08-.07a5.73,5.73,0,0,0-2.83.05c-3.16.06-4.77-1.05-7.8-1.1,1.2.95,0,1.86-1.13.87-1.69.47,1.83.6,1.66,1.38-.19.6-1.42.33-2.26.38-1-.43-1-1.59-1.65-2.27l-2-.05c-2.26-1.45-4.94-1.39-7.55-1.24a17.14,17.14,0,0,1-4.53-.21l.45-.38a.61.61,0,0,0,0-1,1.08,1.08,0,0,0-1.28,0,10.13,10.13,0,0,0-.93.79s-.14,0-.21.05l-.19-.16.17.16c-.26.06-.63.13-1,.19l-.33,0a7.25,7.25,0,0,0-4.43-1.88,1.84,1.84,0,0,0,.58-1.33c-2.84-.35-4-2.67-5.6-1-2.1-1-2.93-2.63-5.61-1.49-.69-.21-1.14-.6-1.1-1.36-.36,1.66-2.64-.1-2.81-.08-.78.11-.5,1-1.71,1.3-.83.21-2-.27-2.81-.08,0,0,0,.89,0,.89s-3.06-.83-3.35-1c-1.27-.65-.57-1-1.1-1.81-1.06.84-2,.08-3.37-.09,2.19,1.8-1.16.52-2.17.81a4.88,4.88,0,0,0-1.15-.45,5.7,5.7,0,0,1-.66-.2.62.62,0,0,0-.74.19.4.4,0,0,0,.25.59,5.69,5.69,0,0,0,.83.25,2.4,2.4,0,0,1,1.05.45l-.25.06c-.45-.09-.52.14-.55.4A5.7,5.7,0,0,0,766,16l-.1-.23c-1.53,0-1.11-.77-2.24-.06l.27.68-.84-.25c-1.46.5-4.54,2.77-5.63-.15-1,.09-1.29.74-1.15,1.76l-.56,0,0,.11c-.55-.08-1.11-.14-1.64-.17h-.11c-.7-.19-.42-1.13-.5-1.78-1.11,0-.73,1.2-2.26.83-2.06-1-.4-2-3.34-2.32,1.1,1.06-.15.49-.58,1.32-6.2-1.05-7.89-1.73-14-.82l-.06.13c-.07,0-.12-.07-.19-.07-.41,0-.82-.08-1.23-.14s-1.07-.15-1.61-.17h0a.85.85,0,0,0-.56.2c-1.33-.22-2.9-.39-4,.55a.5.5,0,0,0-.13,0c-.27-.14-.54-.29-.8-.41l-.54-.25-.1-.05H724a2.46,2.46,0,0,0-.85.32l-.25.13-.12,0,0,.11c0,.11,0,.28-.06.42a6.7,6.7,0,0,0-1.7-.28,5.23,5.23,0,0,1-1.25-.18c-.47-1.45-2.74-1.13-4.27-.49a5.15,5.15,0,0,1-2.13-.23l-.08-.16a.56.56,0,0,0-.63-.21.36.36,0,0,0-.26.5l.25.47.36.1a8.58,8.58,0,0,0,2,.4,4.11,4.11,0,0,0,1-.17l-.11.25c.86.56,2.17,1.49,3.36.54v0a6.7,6.7,0,0,0,1.7.28,3.68,3.68,0,0,1,1.61.3l.17,0s.09.06.15.06h.19a5.47,5.47,0,0,1,1.72.3s0,.08.05.11l.83.69a1,1,0,0,0,.6.21,1,1,0,0,0,.38-.12,6.05,6.05,0,0,0,.6.26l.13,0a.44.44,0,0,0,.43-.24c.08-.18,0-.38-.28-.45a4.32,4.32,0,0,1-.45-.19c0-.06,0-.11-.08-.17l.62-.47a.21.21,0,0,0,0-.33.36.36,0,0,0-.42,0l-.54.4-.57-.47a5.31,5.31,0,0,0,.18-.64c.81-.73,2.07-.59,3.33-.37a.76.76,0,0,0,.28.25v1.06c0,.16.15.28.34.29a.32.32,0,0,0,.35-.27v-.92c.35,0,.71.06,1.06.1s.77.1,1.16.13l0,.08c3.68.1,6.4.67,6.74,1.08.12.64,4.61,1.16,3.94-.35.55,0,.42.56.55.91l.37-.08,0,.35c0,.3-.06.59-.09.88a9.72,9.72,0,0,1-2.56-.37,11.29,11.29,0,0,0-3.11-.45c-.45,0-.79.32-.75.67s.44.6.85.61a8.63,8.63,0,0,1,2.57.39,13.72,13.72,0,0,0,2.76.46h.37s.07.07.13.09h0l0,.14H745a.7.7,0,0,0,.55.91c-2,1.58-7.32-.83-12.35-1.22-2.21-.18-4.25.5-6.19.28-2.13-.23-3.27-1.82-5-1v0c-.14-.07-.27-.11-.42-.19a3.16,3.16,0,0,0-2.7-.48.57.57,0,0,0-.42.81.87.87,0,0,0,1,.34c.36-.1.6,0,1.2.34a9.76,9.76,0,0,0,.9.38l-.18.1c-2.95.2-11.46.39-13.42-1.66l.23-.13a8.39,8.39,0,0,0,3.59.73c.53,0,1.08,0,1.61,0a20.85,20.85,0,0,1,2.63.07.38.38,0,0,0,.37-.23c0-.14-.11-.27-.29-.29a22.63,22.63,0,0,0-2.73-.07c-1.83,0-3.55.05-5-.73l-.17-.09-.17.07a6.68,6.68,0,0,0-.79.42l.1-.25-4.49-.12c-.26.93.36,1.19.53,1.8-.52-.28-2.06-1.09-1.69.4-.66-.67-2.11-.74-2.79-1.41-.7.18-1.17.54-1.15,1.31,0-1.49-3.65-.17-3.34-1.87-4.5,1.86-10.82-1.83-14.06.06.08.53,1,.41,1.67.5-1.06,1.46-1.93-.73-3.29-.54a3.54,3.54,0,0,0-.73-.48.41.41,0,0,0-.49.08.25.25,0,0,0,.12.39,2.74,2.74,0,0,1,.7.51l-.24-.07c-1.08-.22-2,.25-1.13.42-4.21-.5-16.88-1.22-21.91-1.48.63.68.63,1.14,0,1.78-.88,0-1.15-.41-1.91-.48,0-.15-.16-.3-.2-.45s0-.2-.07-.3a.37.37,0,0,0-.41-.22c-.18,0-.3.18-.26.33s0,.18.07.27a2.82,2.82,0,0,0,.36.89l-.39-.11c-2-.11-4.91.47-3.91-1.89-2.14-.42-2.19.89-2.84,1.71-1.12,0-.7-1.24-2.23-.95.29.92-1.1,1-1.14.41l0,0s0,0,0-.06c-.24-.29-.15-.48.13-.94a1.81,1.81,0,0,0,.42-1.2l0-.13-.09-.11c-1.5-1.67-3.17-2.38-4.84-2l-.47.09,0,.38a.82.82,0,0,1-.14.64,2.51,2.51,0,0,1-1.19.14,10.75,10.75,0,0,0-1.1.08l.08-.19c-1.37-.28-2.89-.45-2.79-1.85-1.49,1.55-3.28.05-6.19.28l.11.28a5.54,5.54,0,0,0-1.7-.39l-.33,0h0a.36.36,0,0,0-.4.27c0,.17.13.33.35.35l.35,0a4.71,4.71,0,0,1,1.36.29l-.27.07c-1.36.22,1.44.89,1.09,1.81a3,3,0,0,1,1.7-.4l.84-.2-.29.66c1.25-.22.79.87,1.67.93,2.07-1.1,1.2-.13,3.94.11l0-.09a6.25,6.25,0,0,0,.77.94l-.25.05c-4.19.78-6.69.16-12.94.11,1.93-2.06-.32-.82-3.35-1.43v-.9l-.18,0a2.93,2.93,0,0,0,.45-.6l.06-.13-.07-.12a3.91,3.91,0,0,0-4-1.56c-.19,0-.3.18-.25.33a.37.37,0,0,0,.44.2,3.11,3.11,0,0,1,3.07,1.17c0,.08-.14.14-.19.21a115.32,115.32,0,0,1-16.21-.88c-.91-.15-3.19.82-2.8-1-2.35,1.7-3.21-.61-6.19.28l-.08.19a6.22,6.22,0,0,0-1.43-.26l-.26,0c-.88-.17-1.17-.79-1-1.76-1.39,0-2.73,0-2.8-1,0-.43.7-.32,1.14-.41-.08-.53-1-.4-1.68-.49l-.12.26a5.1,5.1,0,0,0-1-.88l-.51-.36a.53.53,0,0,0-.63,0,.31.31,0,0,0,0,.51l.52.37a6,6,0,0,1,.58.5,2.68,2.68,0,0,0-2.24.83c-.64-.15-2.83-1.62-.54-1.35-.11-.64-1.67-.2-1.67-.93-1.17.21-1.2.66-.58,1.32-1.54,0-1.13-.77-2.25-.06q-.13-1.47,1.71-1.29c.29-1.41-2.79-.25-2.22-1.84-2.3,2.05-3.77-1.62-5.63.29l0,.1c-.19-.09-.41-.16-.59-.25a.61.61,0,0,0-.74.11.38.38,0,0,0,.16.59c.2.11.41.21.64.31h-.08c1.16,1.51-.72,1.21-2.42.9a1.59,1.59,0,0,1,.13-1.45l.08-.14-.11-.13a2.17,2.17,0,0,0-.77-.67l-.08,0h-.1a10.65,10.65,0,0,0-1.14,0c-.47,0-.95,0-1.45,0h0a.35.35,0,0,0-.38.27.34.34,0,0,0,.36.32c.53.05,1.05,0,1.51,0h1a1.27,1.27,0,0,1,.37.31,2,2,0,0,0,.06,2l-.4-.12c-1.12,0-.74,1.2-2.27.83v0a4.82,4.82,0,0,0-2.93-.32,2,2,0,0,0-.92.74l-.1-.1h-.61s0,0,0,0a3,3,0,0,0-3.18-1.41c-.45.06-.76.39-.68.76a.86.86,0,0,0,1,.56,1.39,1.39,0,0,1,1,.24c-1.52,1.39-5.53-.07-7,.49a7.72,7.72,0,0,0-1.75-.46v0c-1.41-1.43-7.56.73-7.28-2a36.42,36.42,0,0,1-10.68-.73l.27.67-.83-.24c-.43-.08-.51.12-.55.35a3.49,3.49,0,0,1-1.26-.12.55.55,0,0,0-.67.24c-.1.21,0,.45.32.54a5,5,0,0,0,1.28.22,5.33,5.33,0,0,0,.95-.11l-.1.22c0,.44,0,.89,0,1.33-2-.86-2.26-.82-5-.58l0,1.79c1.4.26,3.39.07,3.35,1.42a3.75,3.75,0,0,1,5.62.6c-6.55.82-13.54-.84-20.78-2.34,0,1.2-2.61,1.6-3.95,1.23-.18-.05-.73-.9-.55-.91-2.13,0-4.29.33-6.76.27.56,0-1.28.9-2.81.37-3.65-1.26-7.53-2.41-11.22-1.64-1.95-3-6.63-1.17-12.36-.77v.14s0,0,0,0a12.69,12.69,0,0,1-3.15-.42,12.3,12.3,0,0,0-3.89-.44.35.35,0,0,0-.36.36.39.39,0,0,0,.46.29,11.76,11.76,0,0,1,3.59.41,15.66,15.66,0,0,0,3,.45h.12a.72.72,0,0,1,.29.56c-1.66.75-4.42-.58-6.74-.62,0,.44,0,.89,0,1.34-2,.06-2.69-.9-4.48-1l.06.16a5.27,5.27,0,0,0-.76-.29.49.49,0,0,0-.57.21.3.3,0,0,0,.12.34c-1.81.1,2.38,1.61-.57,1.32l.09.22a2.81,2.81,0,0,0-1,0c-.29.06-.52.29-.45.53a.53.53,0,0,0,.19.23A18.79,18.79,0,0,1,453.23,15c.64.68.64,1.14,0,1.78-2.72-.86-4-2.4-6.17-1.05.84-1.1,1.4-1.72.62-3.11-1.79-.43-1.75.66-2.83.82-1.28-.1-.36-1.24-.06-1.66.21,0,.51-.08.62-.08.3,0,.61-.17.64-.43a.55.55,0,0,0-.56-.52,9.25,9.25,0,0,0-1.22.14l.07-.14c-.42-.39-2.76-.45-3.9-1.43l-.06-.3c-.51-.8-1.91-.87-3-.59l-.1,0-.06.06a2.2,2.2,0,0,0-.49.85l-.05.12.08.1c.15.2.35.4.53.6l-.26-.08c-.65.66,1.16,1.24-1,1.72a.81.81,0,0,0-.49-.11H435a6.6,6.6,0,0,0-1,.11s-.09,0-.14,0a.82.82,0,0,0-.71.36l-1.28,0c.08-1.48-1.65-1.62-1.62-3.07-2.3,1.1-.74,3.12-4.54,2.55-1.19-.18.83-1.36,1.16-1.75-1.07-.56-1.29-1.16,0-1.78.1-1-2-.26-2.81-.53,1.71-1.64-3-2.86-2.19-3.62-.06-.92-1.23.3-2.5,0a9.5,9.5,0,0,0-4.27-1.22l-1.26-.16a.62.62,0,0,0-.73.39.54.54,0,0,0,.51.58c.43.07.88.12,1.33.17a8,8,0,0,1,3.67,1l-.14,0c.44.6,2.16,2.42,1.08,2.7l.12.3a2.45,2.45,0,0,0-1.67-.31,1.11,1.11,0,0,0-.87.71c-.61.07-1.6.19-1.93-.08-.11-.08-.14-.25-.1-.47s-.09-.28-.27-.31-.36.06-.4.21a.91.91,0,0,0,.3.95,1.94,1.94,0,0,0,1.16.32,8.35,8.35,0,0,0,1.35-.09l.48-.05,0-.2a.55.55,0,0,1,.45-.48A1.62,1.62,0,0,1,419,8c0,.26,0,.51,0,.77.8.06,1.59.11,1.69-.41-.25.93,1.86,1.52,1.63,3.61-3.16-.6-3.93-2.56-6.71-2.4a2.08,2.08,0,0,0-.59,1.76c-.52-.28-2.06-1.09-1.69.4a7.68,7.68,0,0,1-3.91-1.88c-2.29,1.17-2.85.28-5.62-.15,3.16,2-6.39,3.6-8.4,1.61a2.77,2.77,0,0,0-.72-.82l-.13-.11-.18,0a6.52,6.52,0,0,0-1.12.32,2.52,2.52,0,0,1-.36.12l-.13,0a5.85,5.85,0,0,1-1.52-.15,4.9,4.9,0,0,0-2.88.08.33.33,0,0,0-.18.51.53.53,0,0,0,.64.15,3.92,3.92,0,0,1,2.23,0,9.37,9.37,0,0,0,1.41.17h.39a.47.47,0,0,0,.34-.19c.12,0,.25-.06.38-.11a4.21,4.21,0,0,1,.78-.25,2.7,2.7,0,0,1,.56.68h-.14c-.14.56-1.69.53-1.69,0l-.29.22-.28.21c-3.35.27-8.24,1.51-9.55-1.15-1,0-.36,1.51-1.15,1.76-1.32-1.53-4.86-2.6-6.71-2.41-.13.25.86.6,1.12.47-5,2.33-11.73.62-19.13.38-2.46,2.68-5.77-2.14-10.12-.27-.56-.3-.56-1-1.67-.94-.11.38.21.43.55.47-6,.05-15.5.38-24.73-1.11-2.86,2.6-8.71-1.32-12.94.55-.64-.18-1.41-.83-.55-.91a99.85,99.85,0,0,1-17.41-1.36c-.17.72.52.78.54,1.36-5.51-1.26-11-1-15.17-1.3V8a6.16,6.16,0,0,0-4.53,0c-1.29-.38-5.7-.82-7.85.24-.51,1.41.46,1.7,1.09,2.26a17.28,17.28,0,0,1-7.88.68c-.74-.16-.88-.86-1.68-.94-3.53-.35-11.8,1.15-16.32.46-.53-.09-.43-.51-.55-.91-7.15,1.66-16.37,0-23.64,1.15l0,.06a1.32,1.32,0,0,0-.3-.09,7.8,7.8,0,0,0-.83.09l0-.09c-.91-.48-4.82-.64-7.16,0h0c-.77.08-1.54.12-2.32.15s-1.34.07-2,.12h0a5.91,5.91,0,0,0-2.89.19l-.28.06s0,0-.05,0a9.68,9.68,0,0,1-4.93-.62c-2.94,2.22-5.64.49-10.7,1.05l.08.21a10.93,10.93,0,0,0-3.64-.19c-.63,0-1.21.09-1.79.07a.64.64,0,0,0-.32.1c-1.81-.41-2.87-1.55-4.46-.46-1.3-2.41-3.79-1.22-7.85-1.55,0,1.67.61,1.29,0,2.68-2.2-.58-3.12-1.42-4.42.23a14.12,14.12,0,0,1-1.84,0c-1.14-.13-1.11-1.15-1-2.23-1.16.09-1.14,1.16-1.71,1.74.31-1.37-3.82-.25-4.49-.57,0,0-.89-.89-.55-.91-1.26,0-3.11,2.34-5.08.76-1.09,1.36-3.83,1.34-6.76,1.16,1.61,1.33-1.89.55-2.23,1.61l-.73-.28.13-.07c-2.92-1.41-5.36-.46-7.7.6l-.32,0c-1.65-1.18-5.25-.57-6.64.76-3.37-1.17-4.49.29-9-.24,0,.37,0,.74,0,1.1-3.79.69-7.79,1.19-11.67,1.66a135,135,0,0,0-15.35,2.42.57.57,0,0,0-.49.74.78.78,0,0,0,.71.42,1,1,0,0,0,.24,0A134.6,134.6,0,0,1,101,19.21c4-.48,8.06-1,12-1.7h0c2.38.33,3.72-.22,5.62-.29-2.48,3.55-9.43,1.8-14.65,2.28-.28,0-1,.83-1.14.86-2.84.48-6.78.14-9,.65-.53.13-2.34,1.28-3.94.34-.75,1.59-2.32-.3-2.83,1.26l.15.05c-.72.23-1.43.43-2.19.61-.61.14-1.21.28-1.81.46a.35.35,0,0,0-.27.47.5.5,0,0,0,.43.25.55.55,0,0,0,.18,0c.58-.17,1.16-.31,1.75-.44.79-.19,1.6-.41,2.4-.67l-.09.2c2.53-.14,3.85.87,7.31.2a8.7,8.7,0,0,0,1.69-.85c2.4-.2,5.53.83,7.88-.23.66.08.47.82.54,1.35.77-.42,1.15-1.16,1.72-1.74,1.45.46,3.29.9,3.94-.34.66.09.46.82.55,1.35-2.43.78-.43,1.49-.62,3.11,2.69-.06,3.12-.55,5.64-.74-2-1-.67-2.5-2.2-3.18a9,9,0,0,1,6.21-1.18L120,21a7.82,7.82,0,0,0,.9.33l.47.18a.63.63,0,0,0,.89.05,3.61,3.61,0,0,1,.67-.1c-.09,1.4.37.39,1.34.39a.94.94,0,0,1,.06.48c-1.89,0,.45,1.29-.87,1.75l.1.05h-.07c-.77-.17-1.93-.42-2.36.46a.28.28,0,0,0,.21.39l.13,0a.38.38,0,0,0,.35-.18c.17-.34.52-.34,1.49-.12.22,0,.4.05.6.08l-.47.2c-.11,1,2,.26,2.8.52h.14l-.29.36L126,26c-5.93,1.79-10.74.1-16.08,1.73.1.36.55.46.54.91l.11,0a7.84,7.84,0,0,1-1.26.23,6.72,6.72,0,0,0-1.93.41.37.37,0,0,0-.19.56.54.54,0,0,0,.44.21.58.58,0,0,0,.26-.05,5.74,5.74,0,0,1,1.59-.33,9.07,9.07,0,0,0,1.6-.32l-.07.16c.23.67.72-.16,1.69.05a1.55,1.55,0,0,1-1.14.86c-.19,1.19,2.2-1.13,1.67.93.77-.83-.14-1.6,1.73-2.18,1,.17-.55,1.36,1.09,1.81,1.27-.26,2.47-1.57,3.94-.34l.08-.16a3.37,3.37,0,0,1,.38.68c-.47.47-2.08,0-2.17.77l0,0a.57.57,0,0,0-.23-.08l-.55,0a6.72,6.72,0,0,0-1.27,0c-.33,0-.55.28-.49.54a.59.59,0,0,0,.59.41h.11a5.69,5.69,0,0,1,1,0l.57,0h0s.07,0,.11,0h.17c-.5,1.57-1.39,0-3.38.35a1.86,1.86,0,0,1,0,2.23c-1.25.21-.78-.87-1.68-.94h0a3.78,3.78,0,0,0-.57-.81,2.13,2.13,0,0,1-.42-.64,4.42,4.42,0,0,1,1.6-.77,13,13,0,0,0-3.92-1.44l.09.13a3.89,3.89,0,0,0-1.83.53,3.57,3.57,0,0,1-1.4.47c-.24,0-.43.16-.41.35a.42.42,0,0,0,.43.35h0a4.29,4.29,0,0,0,1.84-.58,3.48,3.48,0,0,1,1.29-.42l0,.06a.68.68,0,0,1-.58.88c.09.52,1,.4,1.68.48l.1,0a2.82,2.82,0,0,0,.69,1.11,2.75,2.75,0,0,1,.54.8l-.23-.06c-2.27.48-7.66-.73-9,2.43-1.42-.26,1.33-2.57-1.57-2.27-.12-.12-.2-.25-.33-.36-.4-.34-.81-.7-.78-1s.17-.3.44-.46a.25.25,0,0,0,.08-.41.47.47,0,0,0-.53-.08c-.46.27-.7.55-.74.88-.06.54.47,1,1,1.44a4.62,4.62,0,0,1,.44.45l-.21-.06c-1.07-.22-1-1.3-2.79-1,.63.68.62,1.14,0,1.78l-.28.07a3.48,3.48,0,0,0-1.19-.86,2.78,2.78,0,0,1-1-.66l.18.06c1.73,0,.44-.84,1.39-1.54,0,0,.1,0,.13-.05l0,0,.17-.11h-.09l.09-.13a2.46,2.46,0,0,0-.55-2.3,3.83,3.83,0,0,1-.61-1.21l0-.2-.7-.17c-1.78-.41-3.45-.81-5.34,0l-.12.05-.05.1a2.28,2.28,0,0,0-.24.74l0,.17c0,.12.12.18.23.26s0,0,0,0h0s0,.07.06.07,0,0,.08,0a6.22,6.22,0,0,0,1.57.25l.35,0h0a.32.32,0,0,0,.35-.25c0-.15-.13-.28-.32-.3l-.36,0a7.43,7.43,0,0,1-1.17-.15,1.94,1.94,0,0,1,.11-.43c1.54-.64,2.89-.31,4.59.08l.2,0a4.75,4.75,0,0,0,.63,1.2,2.07,2.07,0,0,1,.52,1.67,34.19,34.19,0,0,1-4.29-.55c.63.56.48.93-.57.87-.07.45,2.41,1,.54,1.35.37.61,1.72-.34,2.24,1l.12-.29a3.15,3.15,0,0,0,1.36,1,3.36,3.36,0,0,1,.87.57l-.48.13A6.51,6.51,0,0,0,93.81,38l-1.48,0c-.25-1,.82-.83,1.7-.85-.57-1.83-4.31.71-5-1.47-1.66,1.64-.57,1.17-2.85,2.6-1.35.14.35-2-1.66-1.38-.07-1.11-.07-2.17,1.16-2.2-1.34-1-3-.15-3.94-.11,0-1.69,3-.84,3.41-2.14-1.26-.72-1.26-1.13,0-1.78l-.1-.07.87-.27.42-.14a.6.6,0,0,0,.43-.85.91.91,0,0,0-1.09-.36l-.43.14-.64.21h0l-2.25-.06-.84.2.29-.66a3.13,3.13,0,0,1-1.1-1.37c-1.39-.62-2.36,1.25-2.81-.07-1.51.4-1.41,2.15-2.86,2.59l-1.12,0v0a11.17,11.17,0,0,0-8.89,0l-.33.15,0,.3a3.41,3.41,0,0,0,.34,1.09l-.17-.05c-.15.48-1.12.27-1.14.86h0a14.23,14.23,0,0,1-2.23.5,10.87,10.87,0,0,0-3,.75l-.06.06a11.5,11.5,0,0,0-2.16.46l.09-.18c-.54-.78-1.54-1.19-3.36-1,1.33,2.46-1.18,2.07-2.87,3l0,0a.88.88,0,0,0-.32-.08A8.17,8.17,0,0,0,49,36l.06-.12-.56,0a1.23,1.23,0,0,1,1.14-1.3c.28-1-3.07.94-3.37-.54.16,1,1.55,2-1.17,3.09l.11.27a3.69,3.69,0,0,0-2.77.14l-.14.13a1.5,1.5,0,0,0-.31.71l0,.11.07.1a2.91,2.91,0,0,0,.73.76.56.56,0,0,0,.32.11.64.64,0,0,0,.36-.11.34.34,0,0,0,0-.54,2,2,0,0,1-.47-.45,1.2,1.2,0,0,1,.13-.25,2.37,2.37,0,0,1,1.44-.1c3.33,1.23,3.24,1,6.17.16-.17-.55-.84-.73-1-1.27l.1,0a4,4,0,0,0,2.08.43c0,.74,0,1.49,0,2.23a4.43,4.43,0,0,1,2.8.52v0a4.7,4.7,0,0,1,.83,1.07c-1.21.64-3.11.13-3.07-1.09,0,2.21-2.94-1.28-7.88.24a2.49,2.49,0,0,0,2.78,1.41v.58l-.06,0a9.25,9.25,0,0,0-3.36-.63s0-.07,0-.1a3.84,3.84,0,0,0-.22-1l-.08-.2-.21-.13a5.39,5.39,0,0,0-1.09-.44,8.4,8.4,0,0,1-1.45-.58l-.4-.22-.42.17c-.48.2-.94.44-1.39.68l-.45.23a2.25,2.25,0,0,1-1-1.51c0-.33-.31-.57-.79-.58a.66.66,0,0,0-.72.62,3.49,3.49,0,0,0,1.48,2.29s0,.09,0,.13a4.27,4.27,0,0,0,2.89,2.5v.25a3,3,0,0,0-.57.55.24.24,0,0,0,.11.36.47.47,0,0,0,.17,0,.35.35,0,0,0,.28-.12,2.35,2.35,0,0,1,.66-.57l-.09.23,2.25.06c-.15-.69.45-.76.55-1.25l.45-.37a.69.69,0,0,0,.25-.43,8.34,8.34,0,0,1,2.76.53c0,.2.24.28.5.3-1.36,1.19-2,1.39-1.18,3.54-1.69-1.61-1.43,0-2.83.82-1.08-.21,0-2.05-2.22-1.4.37.34,2.25,1.43.08,1.33a2.27,2.27,0,0,1-.22-.22l-.08-.12-.16,0a3.56,3.56,0,0,0-1.55,0l-.17,0-.16.29-1.11,0a1.72,1.72,0,0,0,.55-1.29c-1.7.39-2.23,1.76-3.41,2.59-1.06-.08-.37-1.49-1.67-1.39.1-.51,1-.34,1.7-.39-.87-1.2-2.92-1.5-1.64-3.17C32,45,30.71,44,29.78,45.16c-1.83.51-.4-1.45-2.23-.95,0,.45,0,.89,0,1.34-.46-.1-.55-.46-1.12-.48.05-1.2,1.45-1.29,2.1-2a6.18,6.18,0,0,0,3.95-1.48l.33-.23a3.15,3.15,0,0,1,.75.25.6.6,0,0,0,.68-.16.36.36,0,0,0-.2-.54,4.72,4.72,0,0,0-1.31-.37l-.23,0-.69.48A5,5,0,0,1,28,42.27l.12-.27c-.64-.1-.31-.46,0-.45-1.43-.49-3.23.62-5.08.31-.39-.06-4.22-1.93-5.06.31l-.05.07a.93.93,0,0,0-.2-.08l-.31,0A4,4,0,0,1,16.4,42a.66.66,0,0,0-.8.06.39.39,0,0,0,.1.64,3.81,3.81,0,0,0,1.69.36h.05A54.28,54.28,0,0,1,23,47.66c2.5,0,4.94,0,5.57,1.45-.27,0-.5,0-.8,0l-.4,0,.11,0c-.91-1.91-1.53.67-3.37-.53-1,.88.41.88-.59,1.76-3.26-.36-5.55-.59-8.35.21a11.25,11.25,0,0,0-1.16,0,10.16,10.16,0,0,1-2.33-.24.92.92,0,0,0-1.08.43c-.15.36.1.74.55.87a11.65,11.65,0,0,0,2.84.31l1.07,0c0,.3,0,.59,0,.88,4.41-.34,6.93.65,10.1,1.61-1.6,1.51-2.64.52-2.81,1.81-.61,0-1.22,0-1.87,0a16,16,0,0,0-5,.36,50.66,50.66,0,0,0-7.42-1.44.74.74,0,0,0-.88.51c-.06.34.24.65.67.71a49.28,49.28,0,0,1,7,1.35,2.11,2.11,0,0,0,1.39.89,1.85,1.85,0,0,1,.49.19.67.67,0,0,0,.68.62h0a.69.69,0,0,0,.56-.23l2.26.06a.31.31,0,0,0,.35-.26.32.32,0,0,0-.34-.28l-2.18-.06c-.16-.67-.87-.94-1.34-1.07a17.42,17.42,0,0,1,3.65-.18c.8,0,1.64.05,2.45,0l0,.08c.08.52,1,.4,1.68.49.8,1.72-2.52,0-1.72,1.74,2,.2,2.9.1,3.37.53-3.49.53-4.54.56-8.43-.67l-.28.22-.29.21-2.24-.06v.22a4.55,4.55,0,0,0-2.19-.34,3.33,3.33,0,0,1-1.42-.13.76.76,0,0,0-.94.21.52.52,0,0,0,.29.76,4.92,4.92,0,0,0,2.14.27,5.72,5.72,0,0,1,1,0,.63.63,0,0,1-.55.73c-.07.24,3.65.14,1.66,1.38,1.51.83,3.92-.57,5.05,1,.47,1-2.85-.72-1.14.41-.25.65-.49-.06-1.12,0l-.07.16a1.56,1.56,0,0,0-.95-.54,1.24,1.24,0,0,0-.78.24.37.37,0,0,0,0,.63.65.65,0,0,0,.55,0c-.24.63-1,.85-2.15.7-.51,1.42,1.85.66,1.66,1.83l.18,0s0,0,0,0a2.4,2.4,0,0,0,1.4,1.1l.08.22A5.29,5.29,0,0,1,17,69l-.45.07a.5.5,0,0,0-.44.61.65.65,0,0,0,.6.38l.18,0,.38-.07a9.23,9.23,0,0,0,.92-.2.74.74,0,0,0,.21.07h.43c.34,0,.68,0,1-.07l0,.1,1.69,0c.76,1.67-1.44.87-1.17,2.11a4.5,4.5,0,0,1-1.54-.1,6.39,6.39,0,0,0-1.91-.15l.09-.2c-1.28.32-3.75-.6-2.23-.95-.83-.67-1.64-.31-2.56-.13a1,1,0,0,1-.11-.73l.07-.16L12,69.47a3.66,3.66,0,0,0-2-.37c-.2,0-.35.13-.34.28a.32.32,0,0,0,.37.28,4.11,4.11,0,0,1,1.35.13,2,2,0,0,0,.39,1.29L11.36,71c-1.84-1.08-5-.14-5.09,1.65l-3.38-.09L3,72.8a4.1,4.1,0,0,0-1,0l-.5,0a.41.41,0,0,0-.45.38.44.44,0,0,0,.46.36h0c.22,0,.42,0,.6,0s.22,0,.34,0c1.45,1.79,4.29.95,6.61,1.41-2.77,2.42,9.91,3.35,5,4.15,2.62.81,6.19.9,9,1.58-.07,1.35-3.69.95-4.51.32l-.09.22a2.15,2.15,0,0,0-1.16-.83.52.52,0,0,0-.6.23.38.38,0,0,0,.31.48,1,1,0,0,1,.63.38l-.22-.06c0,.41,0,.83,0,1.24a2.93,2.93,0,0,0-1.24,1.8l-.54-.09c-.24,0-.48-.09-.75-.12A4.73,4.73,0,0,0,14,84c-1.26-.28.69-.67-.54-1.35l-2.79-.07v0a7.91,7.91,0,0,0-.87-1.37,3.33,3.33,0,0,1-.21-.72A.57.57,0,0,0,8.86,80a.49.49,0,0,0-.5.53,4.56,4.56,0,0,0,.18.6,4.56,4.56,0,0,0-1.1.28l-.18.08,0,.17a6.58,6.58,0,0,0-.2.94.43.43,0,0,0,.43.44h0A.45.45,0,0,0,8,82.74a6.11,6.11,0,0,1,.13-.7,5.83,5.83,0,0,1,.74-.17,7.54,7.54,0,0,1,.62,1,.26.26,0,0,1,0,.09l-.06,0c0,.45,0,.89,0,1.34a15.75,15.75,0,0,0,5.05,1l-.11-.27a2.85,2.85,0,0,1,.94.09,5.1,5.1,0,0,0,.92.13,2.89,2.89,0,0,0,.5,0l.41-.08,0-.33A2.23,2.23,0,0,1,18.38,83l.08.21c3.47-.27,4.21,1.52,7.29,1.53,0,.23,0,.46,0,.69a2.34,2.34,0,0,1-.76.13h-.09a.29.29,0,1,0,0,.56H25a3.67,3.67,0,0,0,1.46-.32l-.13.3h.57c-.82,1.81-4.89,1-6.8,2.94,0,2.65,4.45,3.24,2.71,5.87,3.21.64,2.42-.44,5.63-.3h.08c-.45.94-1.61,1.31-2.78,1.6a.33.33,0,0,0-.28.43.46.46,0,0,0,.41.25.39.39,0,0,0,.15,0c1.28-.31,2.66-.77,3.25-1.92a3,3,0,0,1,1.33-.28.14.14,0,0,0,0,.07c0,.13.17.21.24.32-.12.18-.23.38-.34.58-2.19,1-1.36,3.36.81,3.86a.94.94,0,0,1,0,.62c-.11.28.1.57.46.66a.86.86,0,0,0,.17,0,.66.66,0,0,0,.66-.38,2.14,2.14,0,0,0-.15-1.59l-.05-.12h.42c.38-1.2-.31-1.58-.46-2.39a3.09,3.09,0,0,1,.17-.29h.23a2.77,2.77,0,0,0,1,.48c.53.13.84.23,1,.55a.34.34,0,0,0,.33.2.18.18,0,0,0,.1,0,.26.26,0,0,0,.24-.33c-.24-.63-.9-.79-1.43-.92a2.36,2.36,0,0,1-.77-.31l.17-.09h0c.38,0,.45-.27.5-.55l.09-.17a.74.74,0,0,0,.4.06,10.14,10.14,0,0,1,3.39,0c-.17.24-.63.24-1,.31,1,.89,1,.39.53,1.8,2.67.89,6.3.54,9.54,1.15.83.15.85,1.15,1.67,1.38,3.73,1.08,8.54.07,10.11.72.81.33.16,1.56,1.11.92l0-.09a3.1,3.1,0,0,1,.3.89,2.3,2.3,0,0,0,2,2.13l-.12.25h.57c-.67,1.81-2.5,0-4.51.33.06.8-.7.92-.59,1.77l2.09,0a2.28,2.28,0,0,1-.17.79.26.26,0,0,0,.18.36l.13,0a.36.36,0,0,0,.32-.16,2.47,2.47,0,0,0,.26-1,4.49,4.49,0,0,0,2.81.52c.13,1.17-.24,1.91-1.72,1.74a2.74,2.74,0,0,0,2.24.95V110l0,0a2,2,0,0,0,0,.76l0,.21.23.11a3.93,3.93,0,0,0,1.23.33c.19,0,.47.08.63.13.07.21.13.46.19.7-.18.17-.52.42-.82.65l-.59.44a.4.4,0,0,0,0,.66.63.63,0,0,0,.4.14.62.62,0,0,0,.42-.13c.18-.15.38-.29.56-.43a5,5,0,0,0,1.16-1l.09-.13,0-.17c-.09-.37-.2-.8-.29-1.09l0-.12-.11-.1a3,3,0,0,0-1.35-.45,4.39,4.39,0,0,1-.61-.12.56.56,0,0,1,0-.22.35.35,0,0,0-.08-.26l.07,0c4.58-.42.92-3.92,2.88-4.38.3-1.4-2.57-.4-2.79-1.41l-.09,0,.78-.39c3.8.15,5.74,1.74,10,2.49-.6,1-2.6.85-4.52.77A6.19,6.19,0,0,0,73.13,111c-.09.28-.34.42-.48.67a3.07,3.07,0,0,1-.86.12h-.08c-.2,0-.36.12-.36.27s.2.29.43.3a4.4,4.4,0,0,0,1.33-.18v.16c-.54.89-.73,2.1-2.28,2.16.24,1.44,2.11,1.63,2.2,3.18.45-.07.57-.43,1.12-.41l-.06-.17a4.58,4.58,0,0,0,1.66.38,5.3,5.3,0,0,0,1.86-.31l-.08.19c2.85.45,4.14,2.09,7.73,2a2.79,2.79,0,0,1-.22.87c-1.2-.17-1.27.6-2.5.4.11.65,1.68.2,1.67.94l.1,0a2.31,2.31,0,0,0-.22.64.5.5,0,0,0,.1.27c-1.17-.22-1.49.27-2.25.38l-.12.09s0,0,0,0a5.63,5.63,0,0,0-1.35-.63l-.8-.33.06,0c-1.75-1.37-4.71-.37-5.62-.15.8,1.85,3.71,1.86,4.92,1.49l.72.3a4,4,0,0,1,.57.25c.82.78.23,2.63,2.09,2.62l0,1.13a.32.32,0,0,0,.34.28.31.31,0,0,0,.35-.26l0-1.16c1.06-.59,1.73-1.52,3.34-1.65.59,1.81,1.78.9,4.47,1.45-.43-1.55.87-1.68.62-3.1-2.11-.4-2.7.47-4.51.32a4.28,4.28,0,0,0-1.67-.93c0-.06.1-.1.11-.17a2.49,2.49,0,0,1,.27-.76l.2,0c.71-.09.58-.87,0-.89l-.43.1a2.8,2.8,0,0,0,.46-1.45c.93-1.29,3.45-2.07,3.36.55,1.65-1.25,1.74.92,3.93.55.16-.27,1.42-1.68,0-1.78.7-.63,2.15-.62,2.83-1.26.61,1.76-.86,2.14,1.06,4,1.5-1.28,4.09,2,5-.24a3.56,3.56,0,0,1,1.28.12.47.47,0,0,0,.17,0,.51.51,0,0,0,.48-.26.39.39,0,0,0-.3-.52,4.7,4.7,0,0,0-2.24-.11l.11-.24-.56,0c2.16-1.29,6.39-.58,8.93.23a3.31,3.31,0,0,0-.42,2.62l0,.24.26.11a5.31,5.31,0,0,1,.62.32.62.62,0,0,0,.35.1.63.63,0,0,0,.46-.16.4.4,0,0,0-.1-.65l-.52-.29a2.12,2.12,0,0,1,.44-1.91l0,.11a4.18,4.18,0,0,0,2.67.1l.05.06a2,2,0,0,0,1.44.94h0a.37.37,0,0,0,.4-.28.35.35,0,0,0-.35-.35c-.36,0-.53-.22-.86-.63l-.21-.25.2.06c1.23-1,1.91.42,3.94.1,1.28-1,1.36-3.08,4.53-2.55,1.23,0,.24,1.59.53,2.24,1.11.77.72,0,2.25.06H126a2.92,2.92,0,0,0-.27,1.92,1,1,0,0,0-.42.26H125a.53.53,0,0,0-.6.46.54.54,0,0,0,.58.49h.31l-.07.1a3.9,3.9,0,0,0-.49.83l-.06.17.1.16a5.22,5.22,0,0,0,.82.94h-.36c-.73-1.35-4.82-.16-5-1.91-1.55,1.38-5.16,1.56-5.61-.6-1.19-.24-1.08.61-1.14,1.31-1.81.29-4.51-1.76-6.19-.17,0,1.25,1.56-1,1.11.92-.08,1-2.38.13-3.37.36a2.1,2.1,0,0,0-.52-3.13c-1.44,1-2.75.38-4,.78v.15a3.37,3.37,0,0,0-1.38-.23,2.33,2.33,0,0,1-1.21-.21.43.43,0,0,0-.5,0,.25.25,0,0,0,.07.39,3,3,0,0,0,1.63.33,2.57,2.57,0,0,1,1.16.19c1.12.72.22,1-.93,1.54l0,.05a.56.56,0,0,0-.19-.09,2.09,2.09,0,0,1-.34-.08c.06-.6-.52-.71-.54-1.25a3.8,3.8,0,0,1-2.26.39l.27.67-.84-.24c.39,1.37-.6,1.6-.61,2.66l2.82.07c-.62-.66-.59-1.1.58-1.32l-.05-.13a6.21,6.21,0,0,0,.62.14h0a12.26,12.26,0,0,0,2.23,1.85c.83-.21,1.42-.62,2.25-.83,1.33-.77,3.17,1.35,3.92,1.44,1.24.15,3-.9,4.51-.77,3.91.33,7.43,1.47,12.34,1.67,1.42.05,3-.41,4.52-.33,1.72.09,3.09,1,4.48,1,1.07,0,5.72-1.19,5.61.6,2.89,1.38,4.08-.76,7.33-1.14,3.24,1.74,10.47,1,13.94,1.15a1.08,1.08,0,0,0,.55.26l.51,0a10.94,10.94,0,0,0,2-.18l.55-.07h0a17.85,17.85,0,0,1,1.92.31,20.94,20.94,0,0,0,2.47.37h0a1.11,1.11,0,0,0,.31-.09,6,6,0,0,0,1.6.31,4.62,4.62,0,0,0,1.38-.26l-.06.17c2.74-.13,6.57.64,8.44-.22a2.74,2.74,0,0,0-2.24-1c.3-1.26,3-.56,2.3-2.61-3,1.38-2.74-3.09-5.58-3.28h0s.08-.07.09-.12a1.72,1.72,0,0,0,0-.68.71.71,0,0,0-.4-.45l0-1.07.37.11c1.38-2.15,3.67,1.67,5.08-.76,2.38,1.66,3,1,5.62.15,1.26.22,0,2.37,1.08,2.71,1.67-1,2.08.91,2.81.07l-.09-.22a12.28,12.28,0,0,0,2,.3c1.45.11,2.37.25,2.79,1l-.19,0c-1.93.14-3.51.55-5.05-.13a3.07,3.07,0,0,0-1.15,1.3c-.29-1.37-.54-.31-2.26.39-1.73.28-.66-1.55-2.8-1l0,.07a4.8,4.8,0,0,0-.7-.11c-.51,0-.66-.09-.75-.23a.71.71,0,0,0-.83-.21.43.43,0,0,0-.25.65,2.16,2.16,0,0,0,1.71.75,2.11,2.11,0,0,1,.29.06c1.2,1.18.15,1.84,1,3l0,0a4.55,4.55,0,0,0-.77.19,1.72,1.72,0,0,1-.7.16.54.54,0,0,0-.58.5.57.57,0,0,0,.6.46h0a3.16,3.16,0,0,0,1.18-.25,3.2,3.2,0,0,1,.39-.1c4.26,2.37,12,1,16.66,1.25l0-.09a2.61,2.61,0,0,0,.55.08,4.64,4.64,0,0,0,1.17-.17,1.71,1.71,0,0,1,1.15-.05.57.57,0,0,0,.18,0,20.21,20.21,0,0,0,5.53.63c.06,0,.1,0,.17,0a.14.14,0,0,0,.09,0c.84-.08,1.7-.08,2.6-.09a26.25,26.25,0,0,0,3.29-.16l-.08.16c3.55-.41,6.92.57,9,.24,1.26-.2,1.49-1.13,2.27-1.27.61-.12,1.64.74,2.24.5s1.33-2.29,2.85-2.15l-.08-.13.17,0a2.3,2.3,0,0,1,1,0c0,.34,0,.69,0,1,3.41-.65,5.66.51,6.79-2-1,0-1.46-.38-1.68-.94l-.28,0a3.72,3.72,0,0,0-.35-2.24.36.36,0,0,0,0-.09l.14,0a5,5,0,0,1,4.52-1.22c-.08-1.26-1.81-1.27-2.2-2.29-2.69,3-12.68-3.1-4.48-1.46,1.45-1.93,5.84-3.33,5.07-.31.73-.14.89-.76,1.69-.84-.65,2.76,3.43,1.57,6.69,3.74l0,1.78.08.2h-.08c-.54.18-1,0-1.54-.43l-.42.4h0l.29-.66c-1.51-.59-1.37-1.76-3.35-1,1,.88-.35.8,0,2.23l3.19.08a3,3,0,0,0,1.46.47,3.35,3.35,0,0,0,.44-.07l0,.1c3.48.57,3.2,0,5.64-.74.12-1-.44-1.43-1.67-1.38.71-.65,1.81-1,2.47-1.66a.62.62,0,0,0,.27,0c.53-.33,1.09-.22,2,0a7.67,7.67,0,0,0,1.66.28,3.18,3.18,0,0,0,1-.14c1.6,1.44,4.63,0,5.8,1.85a12.61,12.61,0,0,1-3.32.26c-.7,0-1.42,0-2.13,0l0,0s-.09,0-.13,0-.07-.06-.13-.08-.08,0-.13,0a4.88,4.88,0,0,0-2.23-.12c-.46.09-.74.45-.63.82a.93.93,0,0,0,1.05.52,3.56,3.56,0,0,1,.68-.07v0c-.06.24-.13.45-.2.67s.15.75.62.86l.21,0a.83.83,0,0,0,.85-.5c.09-.23.15-.46.23-.71l.09-.34c.6,0,1.2,0,1.85,0a11.06,11.06,0,0,0,4.68-.52l.07.16c1.75.54,1.48.25,2.81-.37,0-.43-.68-.36-1.11-.48.68-1.24,2.8-1.28,4.53-1.66l.07-.16h0c.36.62.49,1,.13,1.25,0,0,0,.07,0,.11l-1.34,1a.24.24,0,0,0,0,.4.37.37,0,0,0,.25.09.43.43,0,0,0,.25-.07l1.14-.87,0,0c.32.21.53.36.59.63l0,.16.17.08a7.14,7.14,0,0,0,1.53.58l.13,0,.55-.14.17,0a5.17,5.17,0,0,1-.38.89c-.07.14-.12.28-.19.42-.25,0-.51.06-.76.11-.61.11-.88.15-1.13,0a1,1,0,0,0-1.26.2.64.64,0,0,0,.28,1,2.82,2.82,0,0,0,1.28.32,5.51,5.51,0,0,0,1.29-.15l.6-.08a8,8,0,0,0,2.64,2.79.44.44,0,0,0,.25.08.35.35,0,0,0,.28-.09.26.26,0,0,0,0-.42A7.36,7.36,0,0,1,276.2,129a.58.58,0,0,0,.22-.53c0-.08-.08-.13-.12-.2s.13-.31.21-.46a5.78,5.78,0,0,0,.47-1.19l0,0c2.54-.47,2.29,1.18,3.46,1.74l.19.3a3.15,3.15,0,0,0,1.58,1.51.54.54,0,0,1-.13.34.87.87,0,0,1-.8.25.88.88,0,0,0-1,.51c-.09.36.21.72.67.81l.44,0a2.75,2.75,0,0,0,2-.76,1.6,1.6,0,0,0,.39-1.5,8,8,0,0,0,1.45-1.35l.11.12c.16.68.74.82,1.66,1.83,1.32-.08.36-1.95,0-2.23,3.34.95,3.1-.85,6-1.14a14,14,0,0,0,1.45.37,10,10,0,0,1,1.14.28c.38.5.19,1.45,1.55,1.21.92-1.87,3.78-.78,4.5.12,1.6-.86,2.32-.74,4.5-.33-2.07,2.16,1.73.37,3.38-.35.92.74-.27,1.66,1.08,2.7,1.34-.42,5.58-.76,6.2-.28,1.09-.16-.9-1.29,1.7-.84l0-2.18a.73.73,0,0,0,.28.1h0c.54,0,1.08,0,1.62-.07.32,0,.63-.05.95-.06a.94.94,0,0,0,.37.07,4.83,4.83,0,0,1,1.88.35l.53.14,0,0c.66,1,3.54,1.67,1.15,2.66l-.91,0a.28.28,0,0,0-.33.25c0,.14.14.26.32.26l.84,0c0,.28,0,.57,0,.85,4.25.67,6.16-.6,9.57-.63.64-.63.62-1.07-.54-1.35.66-1.57,4.86-.18,6.21-1.18-.85-.34-1.39-.36-.24-1.14a3.15,3.15,0,0,1,.91,0,3.61,3.61,0,0,1,.25.3h-.35c0,.29,0,.59,0,.89,2.44.55,5.32.36,6.73.62l0-.05a.79.79,0,0,0,.26.08h.13c.48-.05.86-.13,1.24-.2a5.91,5.91,0,0,1,1.46-.17.77.77,0,0,0,.86-.66.8.8,0,0,0-.85-.71h0a7.85,7.85,0,0,0-1.92.21l-.52.08c.5-.47.13-.63-.07-1.23-2.31-.12-3.53.68-6.19.28l-.07-.09-.21-.17a3.75,3.75,0,0,0-2-.12l0-.13c-.45-1.31-1.82.22-2.81-.07-1.54.28-1.12-.92-2.24-1,3.39-.92,7.68-.39,11.82-.12,2.23.14,5.7,1.93,7.31-.25a1.61,1.61,0,0,0,2.81.07c.42,1.36,3.78.49,3.38,2.47a24.74,24.74,0,0,1-5.7.1.75.75,0,0,0-.87.5c-.07.33.22.64.63.7a15,15,0,0,0,1.76.13,36,36,0,0,0,4.43-.23l.26,0v0c2.9,1,6-.28,8.44-.22-.6,1.58,3.3,1,3.94.1,7.58,2.86,19.79-.13,29.79.8-.29-1,1.09-.6,1.15-1.31,4.32,3.6,12.79-.07,16.85,1.79,1.77,0,2.79-1.31,4.51-1.21s2.18,1.15,3.35,1.42c.76.18,1.69-1.9,1.69.05,4.65-2.75,15.42-2.19,19.13-.38a3.24,3.24,0,0,0,1.15-1.31c7.72,0,13.28-.09,20.24.54,4.84-3.73,13.18.09,18.6-3.07,4.34,1.48,8.44.7,11.8,1.21,1.95.3,4.1,1.82,5,1.47,1.18-.43,3.08-.65,3.39-.8.13-.06-.12-.86,0-.89,1.1-.28,3.24.55,4.51-.77,1.55,1.08,4.36.24,4.47,1.45,3.23-.44,6.24.73,7.35-2,.52.27.83,1.27,1.11.48.64.1.31.46,0,.45.67,1.37,2.15-.26,2.82-.38,3.58.7,6.6,2.15,10.65,2.07.48,0,1.61-1.27,1.71-1.29,1.64-.32,5.76,0,5.6,1.49l.09,0c-.24.09-.46.17-.67.27a.38.38,0,0,0-.17.59.6.6,0,0,0,.45.21.72.72,0,0,0,.29-.06,5.31,5.31,0,0,1,.6-.22l0,.09c.12.9,3-1.66,3.36.54,1.32-.26.46-2.33,2.84-1.71.14-.59-.29-.75-.46-1.11a5,5,0,0,1,.9,0,6.26,6.26,0,0,0,1.32.06l-.06.16c1-.14,1.06.37,1.11.92l5.07.13c.48-1.34.1-2.26.6-2.65-.08-.52-1-.42-1.63-.49a3.67,3.67,0,0,1,.08-.52,3.07,3.07,0,0,0,.07-.92l.39.11c1.87.42,3.88.15,5.6,1,0,.15,0,.3,0,.45l.22.24a.56.56,0,0,0-.24.24l-.23.07a2.34,2.34,0,0,0-1.6.82.35.35,0,0,0,.24.48.57.57,0,0,0,.18,0,.44.44,0,0,0,.42-.21c.11-.19.52-.3,1-.4a6.21,6.21,0,0,1,.06.7v.43l.12.15a3.39,3.39,0,0,0,2.23.78h.08a.74.74,0,0,0,.79-.52c.06-.32-.22-.63-.64-.68a6.9,6.9,0,0,1-1.06-.17,4.61,4.61,0,0,0-.1-1.1l.26.07c1.74.08,3.12-.12,3.94-.79-.3,1.07,3.07,1.31,4.47,2.35.85-.6,1.15-1.67,3.23-1.26.13.18.23.33.31.46h-.16c-2.15-.14-.21.36-.58,1.32,1.58.12,3-1.32,1.3-1.71-.12-.18-.25-.36-.42-.57l.28.08c1.45.61,1.76,1,1.09,2.26,2.38.32,2.27-1.43,4-1.68,2.23,2.11,3.2,1.26,7.85,1.55,0-1.06,2.92-2.05,1.18-3.09,1-1.63,5.23-1.5,6.75-.27-.16.93-2.47.06-2.82.82.07.82,1.87.34,2.22,1a4,4,0,0,1-.25.37,2.57,2.57,0,0,0-.4.64.3.3,0,0,0,.25.38l.1,0a.39.39,0,0,0,.38-.21,2.21,2.21,0,0,1,.32-.52,2.46,2.46,0,0,0,.47-.93l.26.28c.09.82,4.18-.58,2.81.52,3.84-.54,9.93,2.38,14.07-.51-.19-.59-1-.73-1.11-1.37,1.49,0,3.32-.16,3.36,1-.09,1.91-2.38-.81-2.27,1.28a13.48,13.48,0,0,0,6.76-.27c-.74,2.19,6.42-.33,6.72,1.52,2.29-1.26,3.17-3.69,7.93-2.91.76.16.44,1.13.53,1.8,4.84-.54,7.35-.25,11.81-.13-.15-.72.55-.76.59-1.32,2.37,2,3.89.68,7.28,1.53-.16-2.28,3.78-1.86,5.64-1.19,0,.44-.69.33-1.12.42,2.79,1,5.35.58,6.75-.71,1.27.28-.69.67.54,1.35,3.43-.05,6.14-2.52,8.44.23,2-.54,2,.08,3.94-.34-.09-.53-1-.41-1.68-.5,1.94-1.47,6.19-.88,7.3,1.09,4.74-1.27,6.7-.63,11.24-.14l0-1.34c1.83,0,4.25-.44,3.36.53,2.75,1.6,7.28.3,10.13-.17,1,.42.9,2,2.23.95-3.12-1,5.67-2.42,3.38-.36.74.48,2.61-1.78,4-.33l0,0a3.25,3.25,0,0,0,2.09.91h.21a2.17,2.17,0,0,0,1-.39l0,.06a3.82,3.82,0,0,0,2.24.5.68.68,0,0,0-.55-.9c.46-.38,2.61-1.25,3.24-.45a6.11,6.11,0,0,1-1.86.45c-.18,0-.32.13-.3.28a.31.31,0,0,0,.32.24h0a7.62,7.62,0,0,0,2.65-.72l-.14.31c1.9.82,4.12.42,6.19.16,1.7.59-.86,1.68.52,2.24.08-2.18,3.46-4.39,5.66-2.07-.25,1-3-.07-3.39.8.84.84,2.41,1.11,3.34,1.87,2.65-1.31,4,0,6.2-.28-.5-.8-1.34-1.34-1.66-2.27.88,1.78,2.63.15,3.35,1.87,1.24-.24,3.2-.71,4.33,0a4.28,4.28,0,0,0,.09.83l0,.2.22.09a3.05,3.05,0,0,0,1.14.23,5.13,5.13,0,0,0,1-.09l-.09.22c3.79-1.57,7.55.32,11.25-.15.65.09.46.83.54,1.35,2.19-.13,2.33-2,3.42-3,1.75-.1,2.67,1.11,3.94.11-.42,1.36-.41.84,0,2.23.82-2.28,2.53-1.14,5.1-2.1.64.24-.71,2.31,2.22,1.85,0-.6,0-1.19,0-1.79,1.1.79,3.47.61,4.48,1.46,1.27-.21-.67-.71.58-1.32,2.11-.42,1.59,1.15,3.36,1a2.62,2.62,0,0,1,2.19-.82,1.81,1.81,0,0,1,.72.37l-.17.14-.22.18a.54.54,0,0,0,0,.88.93.93,0,0,0,.52.18.9.9,0,0,0,.58-.19l.22-.17c.23-.2.41-.34.53-.46a.68.68,0,0,0,.33-.29,3.25,3.25,0,0,1,.46-.11c.32-.05.53-.3.46-.55a.58.58,0,0,0-.7-.38c-.1,0-.3.08-.42.11a3.29,3.29,0,0,0-1.69-1.06c0-.25,0-.51,0-.77a10.4,10.4,0,0,1,1.37-.05h0a.91.91,0,0,0,.49-.14,5.61,5.61,0,0,1,3.17.22c.14,1-.17,1.67-1.15,1.75.34,1.35,1.2-.39,2.24.06v-.31a7.76,7.76,0,0,0,2.09,1.15c.25.1.5.19.73.3a1.14,1.14,0,0,0,.25.06.6.6,0,0,0,.5-.23.4.4,0,0,0-.23-.59c-.25-.12-.52-.22-.78-.32a7.09,7.09,0,0,1-1.73-.92h.31c.21-.62,1,0,1.12.48a3.14,3.14,0,0,0,1.14-1.31c1.11,1.26,2.43.73,3.92,1.44.84-1.44,3.06-2.63,4-1.67l.17-.06a2.54,2.54,0,0,0,1.58.87l-.08.12c-1,1.21-.43,1.25-1.16,2.2,1.78,1.45,4.23-.38,5.64-.74.22-.75-.42-.85-1.11-.92,1.5-.85,3.42-.49,6.11.58l.06.07a4.32,4.32,0,0,1,.65.66l.09.14.19,0a3.3,3.3,0,0,0,.64.07,2.1,2.1,0,0,0,.88-.15.29.29,0,0,0,.15-.44.46.46,0,0,0-.55-.13,1.45,1.45,0,0,1-.78,0c-.17-.2-.41-.42-.65-.65l-.06-.05h0c-.07-1.76.86.17,1.69-.85l0-.11a39.83,39.83,0,0,1,8.66,1.83c1.06.3,2.13.61,3.24.9a.57.57,0,0,0,.18,0,.67.67,0,0,0,.66-.37c.12-.28-.09-.59-.45-.68-1.08-.29-2.14-.59-3.19-.9a44,44,0,0,0-8.3-1.8c.45-.2,1.33.67,1-1.08,1.54-.28,1.12.92,2.23.95,5.06-.88,9.2.59,13.51-.53l0-.11c.2.07.4.12.62.21a4.55,4.55,0,0,0,1.64.44,2.35,2.35,0,0,0,1.22-.29.41.41,0,0,0,.13-.65.67.67,0,0,0-.82-.12c-.45.24-.83.14-1.65-.2-.16-.07-.35-.11-.52-.17,0-.3,0-.59,0-.88a25.49,25.49,0,0,1,5.63-.29,1.56,1.56,0,0,1,.74.23,3.08,3.08,0,0,1,.38-.2c1.83-.84,5.84.41,10.7-.16-.58.48-.49.82.31.88a1.84,1.84,0,0,1,.16.68.32.32,0,0,0,.33.3h0a.31.31,0,0,0,.34-.26,2.25,2.25,0,0,0-.25-1.13H867c.82-.17,0-.39,0-.89,2.08.37,2.42-.69,4.5-.32.1-3.32,4.34-2.95,6.8-2.94,1.45,0,2.7-.84,3.39-.8,2.06.1,4.44.92,6.73,1.07l-.15-.36a4.17,4.17,0,0,0,1.45.41,2.63,2.63,0,0,0,1-.16v.17c1.25.1,4.69-1.13,4.48,1.46.79.06,1.59.11,1.69-.41.25,0,.52.08.74.13l.19-.65c-.33-.07-.77-.14-1.21-.2l.29-.16c.69-.57.23-.7,0-1.34,2.85.63,4.57,2.18,6.72,2,.79.18,0,.79-.58.88a5,5,0,0,0,3.14.46c0,.39,0,.79,0,1.19l2.37-.26a2.44,2.44,0,0,1,.11.54,13.57,13.57,0,0,1,1.57-.72c1.91-.21,3.74-.39,5.33-.42a1.36,1.36,0,0,1,.42.89,24.07,24.07,0,0,1,2.59-.68s.16.12.18.17.29.24.56.24a.41.41,0,0,0,.11,0c.31,0,.52-.16.46-.32a1.59,1.59,0,0,0-.17-.25,7.37,7.37,0,0,1,4.14,1c0-.43.68-.33,1.13-.41.26-1.68-1.16-2.07-2.21-2.74a5.74,5.74,0,0,1,.33-.83c5.55-.32,12.9.7,17.19.14.43-.57-.91-1,.75-2.06a8.86,8.86,0,0,0,3.54.44,53.24,53.24,0,0,0-9.91-1.31c.08-1.91,6.45-1,7.82-1.52,1.48-.05.23-1.52,1.45-1.7,3-.16,4.69,0,6.39-.18,0-2.57-8.77-.7-6.34-2.94h0a1.6,1.6,0,0,0,.33.07,11,11,0,0,1,1.7.24,11.55,11.55,0,0,0,2.19.31,1.55,1.55,0,0,1,.21,0c.67,1,3,.68,3.13,2.1,1.2-.84.93-1.37.52-2.12,1.56.22,2.24.43,3.25-.29-2,.1-2.74-.64-3.36.06a4.58,4.58,0,0,1-.35-.77,9.54,9.54,0,0,0-1.73.31,1.33,1.33,0,0,0-.86-.16,6.81,6.81,0,0,1-2.42-.19,13.14,13.14,0,0,0-2.25-.31h0a1.93,1.93,0,0,0-.36.06c-.15-1-2.62-.55-3.54-.09-.22-1.72-4.37.51-3.53-1.48-2.19-.18-3.39.71-5-.14l-.43.06,0,0a12.41,12.41,0,0,1,1.1-.76c.15-.09.12-.22-.06-.29a.73.73,0,0,0-.6,0,9.77,9.77,0,0,0-.95.65,32.75,32.75,0,0,1-7.73.3,3.35,3.35,0,0,0-.13-.84.61.61,0,0,1,.13,0c.2-.05.28-.17.17-.28a.63.63,0,0,0-.45-.08c-.08-.2-.15-.39-.23-.62.83,0,1.8.06,2.8,0,1.83-.13,6.91-1.36,7.8.2,1-.06.82-.73,1.44-1l.17,0a1.6,1.6,0,0,0,1.47.71.65.65,0,0,0,0-.5,51.18,51.18,0,0,0,8,.69,2.18,2.18,0,0,0,1,0c1.26,0,2.51-.08,3.75-.15.64.63,1,1.42,1.9.77-.09,1.12-1.1,1.37.53,1.8l.06-.13a2.75,2.75,0,0,0,1.64.76,3.18,3.18,0,0,1,.8.22c.17.27.21.49-.27.55,2.94,1.33,2.83-2.2,6.76-.72.1-1.1-.87-1.4-1.09-2.25,1.08,1.92,4.17,1.18,5,2.36.53-.23.87-1.22,1.14-.41.92.21,0-1.67-.54-1.8.8-.7,2.78-.4,3.39-1.25a5.11,5.11,0,0,1-.68-1.26,74.57,74.57,0,0,1,9.54.32c-.92-1.3-2.51-2.29-3.48-3.56a5.58,5.58,0,0,1-5.11-1.06.65.65,0,0,0,.39-.22,2.25,2.25,0,0,1-.17-.24c6,.08,13.27,1.5,17-.59-6.49-.72-7.46-1.91-12-1a3.47,3.47,0,0,0-1.85-1.07.72.72,0,0,1,.5-.1c-.48-1.32-2.06-.19-2.22-1-.41.14-.58.33-.61.55-1.34-.19-2.79-.34-4.21-.52a1.26,1.26,0,0,0-.24-.61c2,1.18,2.09-3.35,5.13-3.88-.56-1.33-3.21-1.09-3.33-2.76-4.12,1.34-4.66-2.91-8.41-1.56a.67.67,0,0,1,.58-.88c.42-1.2-2.67.25-2.24-.95a7.07,7.07,0,0,0-2.87,3.94c-.82-.85-2.9-.75-2.78-2.31-.76.43-1.12,1.18-2.27,1.28-.74-.18-.87-.81-1.67-.94,2.81-2.34-2.41-4.12-2.69-7.65-2.34.35-3-.56-3.63-1.5,4.11,0,8.45,0,10.45-.8l0-.07c.35,0,.7.09,1,.11h.05c.58,0,1.06-.2,1.1-.48s-.42-.55-1-.59c-.23,0-.45,0-.67-.07-1.94-1-4.64-.42-7.52-.24a1.86,1.86,0,0,0,.1-.31c.75,0,1.46-.09,1.31-.58a9.55,9.55,0,0,0-1.42-.37,2.19,2.19,0,0,0-.23-.46,1.51,1.51,0,0,1-.54.26c-2.76-.53-5.68-.39-7.95-.71-.1-.13-.18-.19-.27-.2.51-.34,2.25-.06,2.64-.47a3.54,3.54,0,0,0-2.12-1.1c2.29.14,2.62-1,4.73-.58a.71.71,0,0,1,0,.71l-.25.12a2.55,2.55,0,0,0-1,.65c-.08.1,0,.22.25.27H940a.47.47,0,0,0,.4-.13,2.23,2.23,0,0,1,.79-.49l.36-.17h0c-.63,1.35.87,1.09,1.1,1.79,1.19-.1.17-2.08-1.08-1.81l.07,0a1.06,1.06,0,0,0-.12-1.2h.28c-.15-.47-1-.61-1.33-1a5,5,0,0,1,1.51.16,10.7,10.7,0,0,0,1.91.29h0c.47,0,.87-.16.9-.39s-.35-.46-.84-.48a10.09,10.09,0,0,1-1.36-.22,7.85,7.85,0,0,0-3-.19c-1.58-.75-4.82-.57-5.58-.49a0,0,0,0,0,0,0c-.27,0-.21,0,0,0,0-.37-1-.55,0-.67l-.15-.23c.21,0,.42.06.63.07s.58,0,.88,0,.64,0,1,0h.12c.3,0,.55-.11.56-.25s-.23-.29-.54-.3c-.51,0-.89,0-1.27,0-.22,0-.38,0-.57,0a.27.27,0,0,0-.09-.12l.11,0h0a1.92,1.92,0,0,0,1.27-.45s0-.06,0-.09a5.57,5.57,0,0,0,.85-.16l.24-.07.07-.13c.15-.3-.1-.66-.36-1l.13,0v-.34c.23,0,.46,0,.69,0a7.67,7.67,0,0,1,2.11,0,1.45,1.45,0,0,0,1.31-.23c.23-.23,0-.53-.51-.65a11.1,11.1,0,0,0-3.29-.11c-.36,0-.72,0-1.07.05l.07-.12a19.75,19.75,0,0,1-2.54-.52,7.21,7.21,0,0,1,.7-.25l-.11-.29c.71.09,1.44.15,2.17.17s1.74,0,2.58,0h1.28a.45.45,0,0,0,.48-.39.47.47,0,0,0-.5-.38H939c-1.36,0-2.77,0-4.12-.12-.18-.69-2-.15-2.72-.39a17.38,17.38,0,0,1,2.44-1.85c1.51.22,2.94.25,3.83-.44l-.14-.22a7.6,7.6,0,0,0,2,.33,7.72,7.72,0,0,0,1.69-.14v.13c.52-.78,4.9.45,4.27-.93l-.13-.2.14,0a2.48,2.48,0,0,0,1.93.28h.73c.36,0,.72,0,1.06,0l-.19.27,1,0,.69.19c.88.63-.81,1,.4,1.57h0a.8.8,0,0,0-.06.52c.46-.29,1.55-.65,1.69,0a3.27,3.27,0,0,1,.92-1.16,2.72,2.72,0,0,1,.91,0c.09.06.16.14.25.2l.09.07.16,0a11.27,11.27,0,0,0,1.27.11,7.51,7.51,0,0,0,2-.25l-.2.28c.94,1,3.73.11,3.56-.61l-.12-.11a9.32,9.32,0,0,1,3.2.11,13.66,13.66,0,0,1,2,.81,1.84,1.84,0,0,1,.07-.59c.11,0,.2,0,.32,0h.64c.29,0,.48-.14.44-.28s-.25-.25-.58-.23-.5,0-.76-.06a1.16,1.16,0,0,1,1-.62c-.79-1.33-2.67-2.33-3.92-1a1.51,1.51,0,0,0,.44-1.17c2.89.33,6.32.41,9.36.67l.1-.13a6.36,6.36,0,0,0,1.63.81,1.78,1.78,0,0,0,.39.07,1.09,1.09,0,0,0,.6-.15c.21-.16.12-.37-.21-.49a4.7,4.7,0,0,1-1.23-.59c-1.11-1.37-5.87-1.62-9.06-2.19,1.72-.14,2,.3,4.22.22-.15-1,.15-1.68,1.15-1.76.51-.9-2.85-1-1.1-1.36a.55.55,0,0,0-.47-.48c3.59-.65,5.24,1.2,6.93-.47l-.07-.1c1.73.35,3.51.57,5.24.76a34.43,34.43,0,0,1,6.82,1.19,1.67,1.67,0,0,0,.39.06,1.19,1.19,0,0,0,.64-.15c.22-.17.11-.4-.24-.52a36.68,36.68,0,0,0-7.35-1.3c-1.64-.17-3.32-.38-4.9-.7-3.22-1.78-10.18-.16-10.4-3l0,0a17.19,17.19,0,0,1,2.48.58c.58.17,1.17.35,1.8.48a1.19,1.19,0,0,0,.33,0,1.14,1.14,0,0,0,.84-.25c.18-.21,0-.48-.5-.58s-1.07-.29-1.6-.44a17.77,17.77,0,0,0-3.39-.74l.08-.11c-2.43-.16-4.61-.21-6.74-.29a2.44,2.44,0,0,0-.27,0l-.77,0,0,0c-1.32,0-1.64-.82-3.37-.54.08-1.11,1.08-1.35,0-2.23-1.79.57-1.88.05-3.94-.11.33-1-1.93-1.81-2.18-3.62,2.52-.44,2.47,2.41,4.48,1l0,0a6,6,0,0,1,1.38,1.51.33.33,0,0,0,.31.18h.1a.25.25,0,0,0,.21-.33,6.42,6.42,0,0,0-1.62-1.8l.22.06c0-.89,0-1.78,0-2.67-1.33,1.15-1.48-1.23-2.81-.08.41-.87.32-1.07.21-1.49,3.9-.25,11.41,1.65,12.57.52,2.2.4,4.47.65,6.68.87,2,.2,3.8.39,5.55.67h0l0,.05c.95.12,3,.94,4.6.25a21.22,21.22,0,0,0,7.3,1.1,33.38,33.38,0,0,1,4.52.34l.22,0a.93.93,0,0,0,.77-.26c.13-.21-.11-.43-.54-.5a36.68,36.68,0,0,0-4.93-.38c-2.57-.08-5-.16-6.77-1.06a1.46,1.46,0,0,0-.83,0l-.08-.07c-.48-.53-5.66-1.53-5.36-.84-1.35-.18-2.71-.36-4.05-.5-2.29-.23-4.65-.47-6.82-.89-.12,0-.23,0-.34,0-3.27-.73-9.12-.28-11-1.64l-.37.51-.34-.52c-3.51.29-1.3-1.27,0-.35l.37-.51.34.53c1.12,0,2.46.11,2.14-.64,2.46.32,3.74,1.15,5.68.15,5.27,2.63,15,1.21,23.38,1.67,9.68.53,18.34,2.62,24.08,2.38l-.12-.23c2.53.41,5.15.72,7.93,1,3.81.43,7.77.88,11.39,1.63l.27,0a.93.93,0,0,0,.74-.23C1030.13,41.41,1029.93,41.18,1029.52,41.1ZM725.07,16.23a7.82,7.82,0,0,0-1.79-.32c0-.11,0-.23.05-.32l.17-.1a2.72,2.72,0,0,1,.5-.22l.44.22.74.36C725.16,16,725.1,16.11,725.07,16.23ZM121.91,21c-.24-.1-.47-.18-.73-.26l-.25-.09c.62-.63,1.87-.88,2,.2A5.42,5.42,0,0,0,121.91,21ZM41.66,41.93l0,0h-.56l0,.16a3.56,3.56,0,0,1-1.89-1.23l.19-.1.89-.44a11,11,0,0,0,1.33.5l.53.19a2.36,2.36,0,0,1,0,.48C42.05,41.6,41.85,41.75,41.66,41.93ZM19.36,68.42l-.47,0a2.7,2.7,0,0,0-.21-.51l-.16-.28-.38-.06a1.07,1.07,0,0,1-.68-.43l.15,0c1,.27,2.33.29,2.79,1C19.83,68,19.53,68.16,19.36,68.42ZM14.65,76c.06-.71-.24-1.71.59-1.77v-.15l.59.16c.17,0,.29.09.44.13C15.62,74.79,16.35,76.38,14.65,76Zm2.29-2.17V74a6.43,6.43,0,0,0-.91-.28l-.44-.12c-1-1,1.24-.3,1.81-.9a8.19,8.19,0,0,1,1.13.15A9.5,9.5,0,0,0,20,73a3.12,3.12,0,0,0,1.47-.35V73l1.68,0c.61,1.42-.17,1.18.53,2.24C20.39,75.87,17.7,73.68,16.94,73.8ZM34.66,56.44c-.32,1,2.19-.48.55.46,0,.27-.09.53-.57.43C34,57.14,34,55.15,34.66,56.44ZM31.73,84.79l.08-.15a1.61,1.61,0,0,0,.21-.88c0-.07-.11-.07-.17-.12l.11-.08c.65,0,1,.13,1.11.48-.81.17.06.39,0,.89-2.46-.39.44.9-1.14.86-.1-.54-1.17-.35-1.52-.71a5.74,5.74,0,0,1,1.12-.28Zm-.43-.86a1.11,1.11,0,0,1-.05.34,5.67,5.67,0,0,0-1.7.46l.15-.34c-1.06-.36-.37-1.33-1.69-.48C27.8,82.13,30.7,83.46,31.3,83.93Zm-5-33.51c.66.09,1-.07,1.13-.42l-.33-.18.75-.06c.31,0,.55,0,.82,0,.16.24.45.4.44.76C28.13,50.2,26.77,51.74,26.32,50.42Zm7,41.21c-2.94-.06-3.66.59-6.5-.18.59-4.57,5.38-1.39,7.87-.24h0Zm5.35,2.57a11.1,11.1,0,0,0-4.44-.08s-.06,0-.1,0c-.09-.31-.16-.54-.23-.73l.19,0c0-.14,0-.28,0-.43l1.33-.4A6,6,0,0,1,39.1,94l-.56,0Zm.11-45.68c-.46.07-.57.43-1.14.42,0-.44,0-.87,0-1.3l1.11,0a2.64,2.64,0,0,0,.38,1Zm1.69-.4-.86,0a1.31,1.31,0,0,1-.17-.6l.07-.13a2.43,2.43,0,0,1,.84,0,6.31,6.31,0,0,0,.58.6ZM42,51.73Zm5.07-.31c0-.27-.07-.53-.55-.46-.13.34,0,.88-.58.88-.4-1.14,2.19-2,2.27-1.28C47.51,50.54,47.73,51.33,47.11,51.42Zm68.77-9.3c0,.44.45.54.55.9-.72,0-.79.55-1.69.4C114.72,42.65,115.19,42.29,115.88,42.12ZM79.32,42a3.71,3.71,0,0,1-2.21.38v-.27s.08,0,.12,0l.41-.3V42C78.6,42.1,79.11,41.26,79.32,42Zm-.51-2.69c-1.58,0,1.32,1.25-1.14.86v.32a4.21,4.21,0,0,0-1.51-.82c-.66-.22-1.1-.38-1.29-.73a1.12,1.12,0,0,1,.2-.17C76.29,39,78.59,38.38,78.81,39.34Zm-2.32-3.68.13.06c.5.21,1,.41,1.11.91-.38.06-.56.29-.93.36a3.33,3.33,0,0,1-.1-.58A3.51,3.51,0,0,0,76.49,35.66Zm-3.12-4.95h0v.34a5.2,5.2,0,0,1-.67,0,3.19,3.19,0,0,0-2.26.45l-.17.21a1.59,1.59,0,0,1-.49.62A9,9,0,0,0,66.11,31a2,2,0,0,1-.14-.39A9.72,9.72,0,0,1,73.37,30.71ZM55,39.6h.16v-.44c1-1.73,2.46-1,3.41-2.14-1-.44-1.94-.88-1.65-2.28l-.13,0a10.15,10.15,0,0,1,1.62-.34,2.63,2.63,0,0,1,.1,1.12,2.68,2.68,0,0,0,.44,2,.57.57,0,0,0,.45.21.71.71,0,0,0,.29,0,.39.39,0,0,0,.18-.6,2,2,0,0,1-.28-1.49,3.44,3.44,0,0,0-.14-1.36,11.78,11.78,0,0,1,2.29-.53,15.81,15.81,0,0,0,2.55-.59l0,.08c2.36,0,1.35.27.55.91,3-.31,4.53.67,5.63-.74l-.14,0a2.59,2.59,0,0,0,1.08-1.1,2.35,2.35,0,0,1,1.19-.11A5.8,5.8,0,0,0,73.9,32l0,.07c1.83-.21,2.61.38,3.93.56.25,1.4-2,1.12-.6,2.21-1.4-.11-2.34.17-2.83.81l1.12,0,.23-.08a2.22,2.22,0,0,1,.21.86,2.6,2.6,0,0,0,.41,1.12l-.31-.1c-.8-.06-1.59-.12-1.7.4l.31.09a2.3,2.3,0,0,0-.79.82l-.06.12,0,.13c.31.86,1.23,1.15,2,1.4a3.32,3.32,0,0,1,1.1.54l-.53.39c-.07.06-.07.13-.1.19-.33,0-.66.08-1,.14l-.51.06c-.19-.72-1.19-.83-2.35-.81a11.87,11.87,0,0,0-2.18-1.37s-.09,0-.14,0c-.21-.51-.22-1.18-1.39-1a2.41,2.41,0,0,0,1.16,1.11c0,.1,0,.19.08.24A13.59,13.59,0,0,1,72,41.29v.1a3.35,3.35,0,0,1-3.38-.09l-.08.05s0-.08-.06-.11-.16-.05-.24-.08a4,4,0,0,0-.28-.85l-.11-.2L67.64,40a6.89,6.89,0,0,0-1.68-.2H65.6a.55.55,0,0,0-.65.46.57.57,0,0,0,.6.53l.36,0c.34,0,.74,0,1,.07a3.49,3.49,0,0,1,.1.38.94.94,0,0,0-.1.23,20,20,0,0,1-6.34.42l-1.77,0a4.82,4.82,0,0,1-.15-.68c0-.18-.24-.29-.47-.3a.35.35,0,0,0-.37.36,4.4,4.4,0,0,0,.15.65h0c-.74-.18-.87-.82-1.67-.94l-.1.21A4.88,4.88,0,0,0,55,39.6ZM74.8,43.69c0-.44,0-.89,0-1.33l-.26-.08c.28,0,.54-.05.86-.11l.91-.12s0,0,0,0,.08,0,.12,0v.29C75.25,42.29,75.85,43.67,74.8,43.69Zm-1.17,3.09c0-.77.45-1.13,1.14-1.31C75.57,46.14,75.57,47.22,73.63,46.78ZM52.8,48c.26-1.59,2.93-1.18,5.08-1.21l.17-.17a6.35,6.35,0,0,0,1.39,1,.58.58,0,0,0,.14,0l0,.09c0,.14,0,.3,0,.44l-.3,0c-.87.07-1.75.14-2.64.17C55.84,47,53.94,49,52.8,48Zm6.78-1.95V45.7a4.59,4.59,0,0,1,1.5-.1h.12a3.8,3.8,0,0,1-1.31.69A3.09,3.09,0,0,1,59.58,46.06Zm-3.45,3.45a.71.71,0,0,0,.3.1h0c1,0,2-.1,3-.18l.7-.06-.06.17c.56,0,.85.1,1,.35l0,.12a3.36,3.36,0,0,1-.16.33C59.42,49.71,55,52.06,56.13,49.51Zm6,53.66c-.5-.2-.7-.57-.85-1.25a3.71,3.71,0,0,0-.4-1.11l.08,0a4.49,4.49,0,0,1,2.81.52l.34-.08a4.87,4.87,0,0,1-.72.62A2.93,2.93,0,0,0,62.09,103.17Zm-.42-53.51.1-.08c.32.78,2.66,0,2.8,1-.89.13.47.8-.58.88.26-1.25-2.12,1.06-2.24-.51l-.38.09a3.25,3.25,0,0,0,.38-.87,2.76,2.76,0,0,1,.08-.27C61.85,49.78,61.74,49.72,61.67,49.66Zm2.42,53.49-1.32,0a3.27,3.27,0,0,1,.92-.89c.24-.17.44-.38.66-.57l-.07.16c.55,0,.42.56.55.91l.08,0C64.63,102.88,64.35,103,64.09,103.15ZM70,50.76a2.28,2.28,0,0,1-3.21-1,21.15,21.15,0,0,0,3.31.76A1.57,1.57,0,0,1,70,50.76Zm.8-5.4c-3.59-.48-6.12-2-9.45-.29h-.25a4.61,4.61,0,0,0-2.21.23l.11-.24c-.1-.37-.56-.45-.55-.9.65-.06.5-.77.58-1.29h.09l1.4,0L62,43a17.71,17.71,0,0,0,5.38-.52l.2.07,0,.09c1.12.92,4.56.08,5,1.48C71.32,44,70.75,44.39,70.83,45.36Zm4.4,5.92c-.91-.63-1.89.76-3.93-.1l-.16,0c.07-.22.17-.44.21-.63a.44.44,0,0,0-.08-.29l0,0c1.66-1,3.24.45,4.9-.25a2.36,2.36,0,0,1-.12.54C75.82,50.82,75.83,51.3,75.23,51.28Zm-.61,65.1.11,0v-.44c.89.06,2.15-.16,2.24.5l.07,0A3.69,3.69,0,0,1,74.62,116.38ZM80.9,48.76c-.73,1.09.27,1.4-.59,1.76-1-1.47-1.49,1.12-3.38.36h-.21A3.16,3.16,0,0,0,77,50c1.28-.3,1.26-1.67,2.83-1.71l0-.15a4.53,4.53,0,0,0,1,.17,3.66,3.66,0,0,0,.79-.11l-.07.14C82.84,48.7,81.57,49.66,80.9,48.76Zm5.68-3,.1-.08c.06,0,.08.13.17.14l.72,0a6.11,6.11,0,0,0,1.82-.18v.16c0,.15,0,.3,0,.45l.1.07-.84.34C87.47,46.77,86.69,46.53,86.58,45.79Zm.59-1.73a6.18,6.18,0,0,1,3.24-.32,5.6,5.6,0,0,1,.3.87l-.17,0c-.4.31-1.22.28-1.55.65a7.5,7.5,0,0,1-1.94.09C86.54,45.08,87.31,44.75,87.17,44.06Zm2.18,4L89.24,48l.11-.05.76-.3.94,0c-.14.76.94,1.18,0,1.34-.4-1.1-1.67-.14-.57.43C88.9,49.5,88.53,48.72,89.35,48.1ZM95,113.93c0,.12-.08.21-.11.31-2.41.16-3.2,1.19-4.94.3,1.86-.09-2.17-1.44,0-1.78,1.19,1.53,2.59-.52,3.94-.34a4.35,4.35,0,0,0,1.16,1.4S95,113.89,95,113.93Zm1.13.77-.17,0c.06-.17.13-.34.17-.49h0c2.88.32,3.8-1.57,5.62.15C99.6,115.3,98.13,116.37,96.12,114.7Zm10.2-71.95c-1.45,1.13-3.9,1.69-5.64.3,1.56,1.56-1.82.63-2.81.37v.17A3.2,3.2,0,0,1,96.36,43a4.64,4.64,0,0,0-.85-.5.39.39,0,0,0-.46.09.24.24,0,0,0,.13.37,5.41,5.41,0,0,1,.76.45,4.3,4.3,0,0,0,1.5.66c.26.35.42.66-.16.72-.18-.59-4.35.49-5.5-.52a4.69,4.69,0,0,0-.37-1l-.09-.17-.2-.08a6.93,6.93,0,0,0-4.53.23l0-.08-2.25-.06,0,1.78c-2.22-.64-1.17,1.43-3.39.8.89.87,0,.62,0,1.66a3.6,3.6,0,0,1-.64,0c-1.13-2.22,2.91-2.42,3.44-4.51a4.6,4.6,0,0,1,1-.07,2.47,2.47,0,0,0,2-.5.28.28,0,0,0-.09-.43.47.47,0,0,0-.53.06c-.27.3-.7.3-1.33.28a3.15,3.15,0,0,0-1.46.18v-.14c-1.13.71-.71-.06-2.25-.06.95-2,4.21-1,6.76-.71-.66-.6-.21-.7,0-1.33l0-.11.64.53a.32.32,0,0,0,.23.08.34.34,0,0,0,.24-.07.23.23,0,0,0,0-.37l-.65-.53.13,0c1.15-.37,2,.48,3.36,1.42.84-1.14,3-.83,3.39-1.24,0-.3,0-.6,0-.9h-.08A4.45,4.45,0,0,1,97,38c.24-.06.46-.13.68-.2h.05a.83.83,0,0,0,.27,0l.49-.11c.61.42.38,1,0,1.78,2.43.59,5,1.59,6.75-.27.28.67.81,1.15,1.09,1.82C103.87,40.83,106.16,42.22,106.32,42.75Zm2.87-3.93c2.78-.28,1.7.78,4-.79.13.64.92.78,1.1,1.36C110.54,40.74,112,40.38,109.19,38.82Zm7.7,78.67c-1.82.34-1.15-1.19-2.23-1.4.39,1.48-1.12.66-1.12,0,2-.09,2.15-.62,3.94.11A1.86,1.86,0,0,1,116.89,117.49ZM227.73,13c.41,2.71-2.58.23,0,0Zm-8.53,6c1-.09,2.46-2,5.09-2.09.93,1.27,2.87,0,1.66,1.37,1.19-.15,1.49.35,2.25.51.48-.34.35-1.21,1.14-1.3,0,.29,0,.59,0,.88.48-.06.52.2.55.47-4.19.8-8.26,1.49-10.69.6h0c0-.16-.06-.32-.09-.48Zm5.47,19.32c-.13-.18-.29-.36-.44-.53l.27.07C227.05,37.65,227.07,38.63,224.67,38.34Zm-.44.51-.3-.09c-3.16.23-3.18-.8-.14-.45l.39.47Zm-3.59-5.08c1.1,1.72-2.59,1.7-2.83.81C219.54,35,218.52,33.07,220.64,33.77Zm-6.83-21.53c.87.41,1.71.49,1.54,1.33-.72-.6-1.25-1-1.66-1.32Zm-4.08.73,1.13,0c0,.3,0,.59,0,.89-.65,0-1-.13-1.12-.47h0a2.32,2.32,0,0,0-.29-.53Zm-5.95-.42,2-.13c1.95-.39,1.71.89,3.08.94a1.86,1.86,0,0,1,.19.31c0,.07.11.07.16.11l-.09.07c-1.32,0-1.67.72-3.38.35l0,.1c-.33-.05-.67-.09-1-.12h-.16c-1-.81-2.2-.55-2.68-.91,0-.2-.06-.39-.1-.59C202.5,12.61,203.14,12.57,203.78,12.55Zm-2.77.18h0c.05.24.09.46.12.71,0,.07.13.09.19.14l-.06,0c-1,.12-1.56-.14-1.6-.78A2.89,2.89,0,0,1,201,12.73Zm-43,1.53,0-.06c.09,0,.15.09.24.09l.7,0a13.72,13.72,0,0,0,1.89-.09l0,.11c4.45.75,12.22-.46,16.31,0-.9,1.07,1.88,1.35,1.68.49-.28-.67-.82-1.15-1.1-1.82l-.1-.24c.59,0,1.18,0,1.75-.08a10.46,10.46,0,0,1,3,.12c1,.83-1,2.2,1,1.25l.36-.09a1.7,1.7,0,0,0,0,1.61,2,2,0,0,1,.16,1.06.56.56,0,0,0-.16.14,3.12,3.12,0,0,0-.63.07l-.14,0-.05.11c-.19.45.12,1,.39,1.4a.39.39,0,0,0,.28.15.37.37,0,0,0,.15,0c.16-.06.23-.21.14-.33a2.17,2.17,0,0,1-.39-.91,2.19,2.19,0,0,1,.36,0,.43.43,0,0,0,.17.12,4.13,4.13,0,0,1,1.06.55,6.14,6.14,0,0,0,1.11.61.85.85,0,0,0,.22,0,.55.55,0,0,0,.49-.24.4.4,0,0,0-.27-.56,4.67,4.67,0,0,1-.89-.5,5.74,5.74,0,0,0-1.19-.59,2.54,2.54,0,0,0-.16-1.23,2.31,2.31,0,0,1-.18-.84c.9.42,2.27-.39,4.23,0,.21,2.28,2.53.23,3.91,1.44l.23-.05,0,0a7.11,7.11,0,0,0-.59,1.19c0,.1-.07.19-.11.27a.33.33,0,0,0,.28.44.31.31,0,0,0,.13,0,.47.47,0,0,0,.43-.23c0-.09.07-.19.11-.29a5.77,5.77,0,0,1,.36-.8,3,3,0,0,1,.38.31,1.32,1.32,0,0,0,1,.94c-.39-1.22,2.64.39,2.25-.83-.11-.78-.94-1-2.23-.95l0,.1a4.47,4.47,0,0,0-.64-.54l.13,0c1.76-.63,5.3-.5,6.72,1.51.94-.85,3.62-.26,3.94-1.64h.07l.54.06c.09,1.66,3.18,1.7,4.46.93-.09,1.11-1.1,1.36.53,1.79.27-1.74,2.67.52,4-.79-.49,1.81,2.33,1.1,3.26,1.82a.15.15,0,0,0,0,.07,43.69,43.69,0,0,1-10,.61c.08-1.9-1.52-.1-3.1-.48a5.51,5.51,0,0,0-1.84-1l-.22-.05-.19.08a5.16,5.16,0,0,1-.57.15,8.25,8.25,0,0,0-1.29.4l-.09-.23c-3.46.94-8.87-.16-11.85,2.36a27.13,27.13,0,0,0,3.35,1.43,9.31,9.31,0,0,1-7.32.69c1.16-.68,1.45-2.1,2.3-3.06-3-.62-4.05.16-6.76.72l.05.13c-.21,0-.42-.11-.62-.14h0c-4-1.36-7.31.35-12.38.56-1.39-.65-1.31-1.3-1.65-1.83-.49,1.11-2,1.36-2.85,2.16l0,.05c-.06,0-.1-.07-.17-.08l-.45-.07c-.57-.71-2.35-.76-1-1.73-.82.47-1.38.44-1.68-.49.86-.65,2.39-.73,2.84-1.71l-.05-.11c.44,0,.88.06,1.32.07a29.25,29.25,0,0,0,5.65-.43c.38-.06.61-.35.52-.65a.71.71,0,0,0-.83-.42,26.22,26.22,0,0,1-6.82.32l-.09,0c-2.29-.86-3.74-.8-7.54-.8C154.16,13.4,157.5,16.19,158,14.26Zm57,22.92a4.47,4.47,0,0,1-2.81-.52c.15-1.37,2-1.33,3.4-1.69C216,36.24,214.74,36.11,215,37.18Zm-10.69-.28a2.15,2.15,0,0,0-.53-1.8l1.12,0c.35,0,.67.09.56.46C204.25,35.69,206.24,36.82,204.27,36.9Zm-4,71.22c-1.16.49-2.66-.77-1.11-.91.15,1.57,1.17-1.86,1.69,0A.67.67,0,0,0,200.28,108.12Zm3.27-87.21-.07,0a7.54,7.54,0,0,1-.81.19c-.4.07-.65.39-.55.71a.73.73,0,0,0,.71.46H203l1-.22h0l-.05.13c.66-.06,1,.12,1.12.47a4.36,4.36,0,0,1-2.81-.07l0,1.78L200,24.3c.73-1.34.46-1.72-.52-2.69.56-.54,1.3-.93,1.59-1.69.26-.09.52-.18.76-.24a4.93,4.93,0,0,0,.49-.13,6.34,6.34,0,0,1,1.31.79l-.19,0c0,.15,0,.3,0,.44ZM200.7,49.29c0-.3,0-.6,0-.9.16-.4,2.51-1.11,2.25-.38C201.88,48.16,202.49,49.72,200.7,49.29Zm-.29-17c.13-1.27,3-2.57,3.41-2.13-1.53.37,1.48.87.53,2.24C203.39,33.2,202.47,32,200.41,32.33Zm-7.31-.19a5.5,5.5,0,0,1-.54-.79.35.35,0,0,0-.42-.13.23.23,0,0,0-.16.33,5.67,5.67,0,0,0,.83,1.11l-.27-.09c-.68,1-3.84.3-3.93-.55.24.92-.74.84-1.6.85a.35.35,0,0,0,.12-.2,1.87,1.87,0,0,0-.35-1.24l-.1-.16-.22-.05a5.47,5.47,0,0,0-1.58-.06l-.1-.05-.25,0c-.22,0-.49-.1-.74-.15,3-1.05,4.3.11,7.66-1.05,1.16.88,3.46.91,3.9,2.33Zm-6.87.71c-.63,0-1.17-.06-1.39-.35A4.1,4.1,0,0,1,185,32h0a4.74,4.74,0,0,1,1,0,1.25,1.25,0,0,1,.13.66A.37.37,0,0,0,186.23,32.85Zm-3.3-1.12c.42.1.84.19,1.19.24a4,4,0,0,0-.16.55c0,.11.12.14.2.22l-.07,0-1.68,0c-.08-.53.13-.79.57-.88Zm7.44-4.12c-.76.12-1.08.61-2.26.39C187.23,26.73,190.56,26.83,190.37,27.61ZM195.25,38c-.43-.12-1.11,0-1.11-.48l2.25.06c.64,1.34-2.4,1.85-2.82.81C194.23,38.35,195.16,38.51,195.25,38ZM179.74,23.76c-1.07-.22-2.41-.23-2.22-1.4.65.09,1-.07,1.13-.42l0,0s.08.07.15.08l.37.08C179,22.9,179.58,23.18,179.74,23.76ZM166.36,40a3.54,3.54,0,0,1-.23-.8A.27.27,0,0,0,166,39c2.17-.33,2,1.14,3.35,1.42v-.13l.46.19a2.71,2.71,0,0,1,.86.48l-.21-.06c-2.33-.18-2.2.53-3.94-.11,0-.29,0-.59,0-.89Zm3.72,0-.11,0c.64-.34.1-1.66,1.1-1.69.32.28,1.27,2.14,0,2.22A3.92,3.92,0,0,0,170.08,40Zm-6.94,1.18c-2.55.22-2.54-.37-2.79-1a4.2,4.2,0,0,1-3.7,1.25l-.32-.55c-.19-.3-.33-.58-.48-.87,0-.13,0-.26,0-.39,2.37-1.13,6.74-.55,9.48-.21a3.94,3.94,0,0,0,.14.49l-.06,0C165.29,41.89,161.32,39.28,163.14,41.15Zm-2-18,.58.1h0c.55,0,.43.56.55.9-1.39,0-2.72,0-2.79-1l1.68,0Zm-7.89,2.54a4.38,4.38,0,0,1-2.82.37C149.62,24.73,153.39,25,153.28,25.72Zm-6.89,7.85c.09-1.14.86-1.71,2.29-1.72,1.28,3.08,5.64-.41,7.84,2-6.86,2.14-11.2.25-16.34,1.79-.15-.72.54-.75.58-1.32l-.08-.12a9.58,9.58,0,0,0,4.14-1.55C145.91,32.52,145.54,33.51,146.39,33.57Zm-.67,7.11c3.89,1.41,3.91-2.75,6.2-1.17l.85-.2-.29.66c.91-.1,1,.45,1.68.49l.07-.06c.18.36.37.73.57,1.07.1.15.19.3.28.46-.92.48-4.6.27-5.43-1.14C148.92,42,146.65,41.56,145.72,40.68ZM149,44.34c0,.29,0,.59,0,.89l-1.12,0c0-.3,0-.6,0-.89Zm-6.73-1.07c-2.65.6-5-1.2-5.06.69h-.08c-.24-.51-.88-.69-1-1.27V42.2c2.17-1,5.16-2.14,6.73.19C141.44,42.33,142.18,42.7,142.3,43.27Zm-5.66,2.07,0-.08.6.09h0c-.08.8.68,1,.53,1.79-2-.07-4.44.14-5-1C134.25,45.06,135.09,46,136.64,45.34ZM132.2,42.1c.34-.11,2.13-1,2.23,0v.46C133.69,41.53,132.73,43.36,132.2,42.1ZM142,27.66l1.69,0v.89L142,28.54C142,28.25,142,28,142,27.66Zm-3.86-6.75c.05-.18.12-.37.19-.55a1.86,1.86,0,0,1,2.65,1l-2.81-.08-.17,0C138,21.2,138.08,21.06,138.13,20.91Zm6,11.26a8.08,8.08,0,0,1-3.35,1.26h0c-1.88.54-2.44-.37-3.37-.54C139.41,31.61,140.73,32.4,144.11,32.17Zm-8.66-16.73v0l1.05.4.11,0,0,.07c0,.16,0,.3,0,.45C135.63,16.66,134.13,15.41,135.45,15.44Zm1.61,4.5.17,0c-.1.27-.21.53-.28.78a1.52,1.52,0,0,1-.09.28c-.25.15-.28.48-.39.75l-1.69-.05C133.48,20.43,135.76,18.7,137.06,19.94Zm-.62,4c-.92,2.13-3,.49-5.1,1.64C132.27,24.39,134,23.83,136.44,23.94Zm-5.95-2.39c.86,0,1.95-.11,2,.5-1.14-.21-1.48.23-2.19.37A3.78,3.78,0,0,1,130.49,21.55Zm5.31,6.83,0,1.78c-2.2-1-4.08,0-6.2.28C130.48,28.79,134.2,29.46,135.8,28.38ZM127,17c.15-.48,1.13-.27,1.15-.86h0l.6-.07,0,.09c.54,0,.42.56.54.91s-.22.41-.57.43C128.67,16.13,125.12,18.05,127,17Zm-1.79,6.64c0-.3,0-.6,0-.89l-.22,0a1.38,1.38,0,0,0-.15-1.47l.39.11c2.13.83,3.75-2.44,3.95-.34l.23-.05a4,4,0,0,0-.24,1.39h0C127.65,23.48,127.21,22.8,125.19,23.64Zm1.64,2.72-.32.07c.09-.11.18-.22.25-.32s.17-.22.26-.32C128.36,24.79,127.84,27.9,126.83,26.36Zm0,2.67c0,.64.07,1.26-.59,1.32l.06.13c-.1-.05-.21-.13-.3-.17l-.26-.15A1.25,1.25,0,0,1,126.79,29Zm-1.2,4c1,.08,1.2-.51,2.27-.38a.67.67,0,0,1-.58.87v0c-.31,0-.61-.06-.92-.11l-.78-.1Zm-4.45-2.8c2-.31,2.36.9,3.38.1l.2-.08a1.68,1.68,0,0,0,.77.62l0,0c-.45.77-2.72,0-3.83.25l-.2.31a3.46,3.46,0,0,0-.58-1.28Zm-.32,19.17c0-.59-1-.44-1.1-.92.8-.15,1-.51,1.68,0C121.27,48.85,121.38,49.38,120.82,49.38Zm.27-16c.89.06,2.15-.16,2.25.5l0,0a8.17,8.17,0,0,0-1.11.57l-.07-.17C121.7,34.05,121.2,33.84,121.09,33.34Zm1,5.82c1.13-1.31,1.81-2.36,1.27-4.12a4,4,0,0,1,1-.48l.08.2a2,2,0,0,0,.69-.29s.06,0,.09.05q.44,0,.87.12c.4.06.8.11,1.19.14l0,.06c.13,2.45-.11,4.39-2.3,2.61-.51,1.85,1.49,1.81,2.21,2.73-1-.16-1.61.07-1.65.74l-.25,0C124.08,40.47,122.4,40.34,122.12,39.16Zm3.3,4.55c-.3-.92-1.68-.92-.53-1.8l0,0a.73.73,0,0,0,.25.08h.09c.28,0,.54-.09.81-.14l-.06.13h.56A1.84,1.84,0,0,1,125.42,43.71Zm.46,74.47c1.15-1,1.84-.52,3.4-1.7.13.49,1.11.33,1.11.92-1.16.1-.17,2-1.72,1.74l0,.11c-.36,0-.73-.11-1.09-.14h-.08C127.42,118.47,125.87,118.91,125.88,118.18Zm3.21,4.32c.2-.11.4-.25.59-.38l.06.17c-.08.29.11.37.35.41a1.16,1.16,0,0,1,.1.32c0,.07.07.11.11.17h0v0c-.25,0-.51-.09-.77-.12a6.79,6.79,0,0,1-1-.18A5.49,5.49,0,0,1,129.09,122.5Zm-.75-.79a7.37,7.37,0,0,0-.8.53l0,0-1,0a2.48,2.48,0,0,1,.18-1.46,1.7,1.7,0,0,1,.73-.25h.07c.2,0,.4,0,.6.07-.06.51.3.69.46,1Zm2.47,4.62c-1.22-.7-3.53-.57-4.48-1.45V125a6.13,6.13,0,0,1-.44-.46c.08-.13.19-.28.31-.46a1.25,1.25,0,0,0,.08-.12l1.19,0c.14,0,.23-.07.36-.11a6.7,6.7,0,0,0,1.54.35,7.24,7.24,0,0,1,.95.15l0,.12C131.68,124.87,131.24,126,130.81,126.33Zm9.56-.19c-.49,1-3.48,1.13-4.51.33-.15-.73.55-.75.58-1.32a11.16,11.16,0,0,1,2.29-.21C138.89,125.63,141.2,124.7,140.37,126.14Zm28.48,4.36a.79.79,0,0,0-.29-.25,12,12,0,0,1,.29-1.18l.15.07h.56c.19.59,1,.73,1.11,1.37l.09.06A3.39,3.39,0,0,1,168.85,130.5Zm-.44-1.59h0l.11,0Zm4.43-5.35a7.31,7.31,0,0,0-.78-.18,4,4,0,0,1-1.05-.29.51.51,0,0,0-.6.11.31.31,0,0,0,.16.48,5.16,5.16,0,0,0,1.31.38c.21,0,.37.11.56.16,0,0,0,0,0,0a.39.39,0,0,1,0,.21c0,.05,0,.08,0,.12v.61h-.56a.54.54,0,0,0-.6.45.55.55,0,0,0,.59.48h.56l0,1.33c-.91-.15-1,.39-1.7.39-.54-.46-1.1-.93-1.66-1.38-.17.9-2,.4-2.24,1.24a2.34,2.34,0,0,1-.72-.11.51.51,0,0,0-.6.22c-.1.19,0,.4.28.48a3.64,3.64,0,0,0,1,.16,4.49,4.49,0,0,0,.71-.07l-.11.26c.48-.06.53.19.55.47l.05,0c-.08.25-.15.55-.23.91-.57-.06-1.15-.15-1.77-.27s-1.22-.22-1.83-.3a2.57,2.57,0,0,0-.78-1.81,3.87,3.87,0,0,0-2.48-.59,3.38,3.38,0,0,1-1.67-.3l.31-.08c.84-1.78,3.66.44,4-1.23-2.07-1-3-3-6.16-1.5,1.16,1.56-.75,2.71,1.06,3.59l.15-.33a3.76,3.76,0,0,0,2.37.52,3,3,0,0,1,1.83.36,2,2,0,0,1,.51,1.4l-.64.08a8.86,8.86,0,0,1-1.66.14c-.7-.4-.76-1.28-1.44-1.69-6.91.3-13.2-1.1-16.79-4.91-1.49,0-3.31-.33-3.39.8l.12.3a13.78,13.78,0,0,0-3.61.3l.11-.24c-1.63-1-1.89-2.09-4.42-1.47a5.69,5.69,0,0,0-.25-.83l.21,0c0-.15,0-.3,0-.45,2.51-.75,8.09-.4,6.8-2.93a10.85,10.85,0,0,1,5,1l.17,0a2.84,2.84,0,0,0-.22,1,.56.56,0,0,0,.59.47h0a.52.52,0,0,0,.58-.47,2.59,2.59,0,0,1,.15-.5c2.66-1.39,6.61.67,9.95.34.44,1.27-.81,1.13-.6,2.21,2.5-.42,4.08,1.19,5.62.15l-.09-.21a14.2,14.2,0,0,0,2.49.29,13.37,13.37,0,0,1,2.25.24h.13a.52.52,0,0,0,.52-.31.44.44,0,0,0-.39-.52,14.81,14.81,0,0,0-2.46-.27,16.35,16.35,0,0,1-1.77-.17c2.64-2.09,8.4-.26,12.62,1.24Zm0-92.08-.64.33h0l.1-.24c-1,0-1.45-.36-1.67-.93a3.8,3.8,0,0,1,2.26-.39C172.88,30.67,172.88,31.08,172.87,31.48Zm.53,1.91c.15-.65-.4-.77-.5-1.23l.61-.32-.09.22c.81.27,2.91-.44,2.8.52C175.48,33,174.14,33,173.4,33.39Zm1,7.17c.76-.56,2.11-.53,2.24.5C175.24,41.08,174.87,41.87,174.4,40.56Zm5.12-3.43c-1.11,2.45-4.33,0,0,0Zm.64-4.44c-.35,0-.67.05-.57.43l-1.12,0C177.61,32,180.4,31.83,180.16,32.69ZM181,48.31c.44-1.29,5.62-1.88,6.18-.28C185.16,48.78,182.71,47.71,181,48.31Zm8-9.59c.43-.09,1.1,0,1.13-.41-1.76-.55-1.27-.08-3.38-.1.15,1-.16,1.68-1.15,1.76-.11-.54-.62-.29-1.12,0a1.83,1.83,0,0,0-.55-1.34c1.76.26,2.74-.49,1.72-1.29C189,38,185.28,35.78,188,36c0,2.37.1.36,1.68.49,0,1.33,1.44,1.55,1.64,2.72C190.46,39.13,189.22,39.33,189.06,38.72Zm7.69,86.67c-.07.15-.15.31-.21.47-1.1.12-1.43-.35-2.17-.5l-.06.15c-.69-1.19-2.26-1.37-3.59-1.47a11.6,11.6,0,0,1-1.31-.21c2.41-1.77,4-1.11,6.7-1.1a.67.67,0,0,0,.51.88,2.86,2.86,0,0,0,.47,1.25l-.46.11v.45Zm28,1.67c-1.34.84-5-.26-6.2.73.49.8,2.27.62,1.65,2.27-1.35.24-4.07-.67-4.51.33l.09.22a8.11,8.11,0,0,1-.81-.57l-.08-.06h-.1a2.36,2.36,0,0,0-1.16.16,2.44,2.44,0,0,1-.53.14c-.19,0-.31.17-.27.32a.35.35,0,0,0,.4.22,3.29,3.29,0,0,0,.68-.19,2,2,0,0,1,.67-.13c.17.12.33.25.53.38,0,.83-1.23.56-1.56,1.07a26.87,26.87,0,0,1-2.84.13c-.79,0-1.62,0-2.43.08l.08-.18h-.57c-.29-1,1.09-.61,1.15-1.31-1,0-1.18-.58-2.24-.51-.67-1.46,1.83-.29,1.15-1.75-4.59-.44-4.89.36-6.78,2.49.65,0,1,.13,1.11.48l.09.23a3.56,3.56,0,0,0-1.57,0,3.52,3.52,0,0,1-.8.12h0c-.12-.49-1.11-.33-1.11-.93.66,0,.49-.79.59-1.32l-.85.2.29-.66c-2.77-.06.62-2-1.08-2.7l-.13,0c.07-.17.15-.33.22-.49,1.15.08,1.71-.34,1.63-1.28-.86,0-1.14-.38-1.84-.48a2.21,2.21,0,0,1-.16-.54c2.22-.77,2.65-.31,5.16.17a1.84,1.84,0,0,1,.54,1.39,2,2,0,0,1-.23.14,2.19,2.19,0,0,0-.44.31.28.28,0,0,0,.06.47.47.47,0,0,0,.26.08.44.44,0,0,0,.33-.12,1.62,1.62,0,0,1,.29-.19,2.7,2.7,0,0,0,.43-.27l.12-.08,0-.13a2.43,2.43,0,0,0-.65-2l.06,0c1,.19,1.07-.32,1.15-.86,2.81.66,5.86-.83,6.75-.27-.91-.34-1,2.08,0,1.79.61-.1.39-.88,1.14-.87,1.44,2.34,7.46.45,9,2.47-.8-.06-1.59-.12-1.7.4.61.13.37.9,1.11.92,1.26-1,2-.52,3.76-.36l.45.55Zm9.57-.64.09-.09a.61.61,0,0,1,.05.12,3.33,3.33,0,0,1,.33,1.36,27.12,27.12,0,0,0-2.77,1.67l.06.16a2.81,2.81,0,0,0-1.76-.17v0c-.8-1.53-2.67-2.25-4.83-2.76-.15-.19-.3-.36-.45-.56l0,0,.3.08,0-1.33c1.44-.6,5.68-.52,3.93.55C231.49,125.32,233.4,125.48,234.29,126.42ZM229,38c3.28-1.2,1.47,1.14,0,0Zm6.27-4.73-1.13,0c0-.3,0-.59,0-.89l1.13,0C235.28,32.68,235.28,33,235.27,33.27Zm17.29,8.93-1.69,0q-.13-1.47,1.71-1.29C252.57,41.31,252.56,41.76,252.56,42.2Zm1.61,4.06,1.13,0c0,.3,0,.59,0,.89l-1.13,0C254.16,46.85,254.17,46.56,254.17,46.26Zm4.45,75.63a.66.66,0,0,0-.21,0,2.74,2.74,0,0,1-2.05,0,4.87,4.87,0,0,0-2.64-.13c1.32-1.8,5.56-1.51,6.53-.42a3.05,3.05,0,0,1-1.7.4Zm18,.29L276,122a.84.84,0,0,0-1,.37.64.64,0,0,0,.49.83,7.87,7.87,0,0,0,1.13.24l0,.07c.06.8-.71.92-.59,1.77l.23.28a.58.58,0,0,0-.19.16l-.7.16-.3.08a6.3,6.3,0,0,1-1-.4,1.86,1.86,0,0,0-.81-.87,1.58,1.58,0,0,0-.2-1.74s0,0,0,0l.24.07c-.06-1.11.91-1.35,1.17-2.19C275.14,121,278.25,121.47,276.6,122.18ZM273.31,11.55c-1.36-.64-.33-.9-1.1-1.37-.58.28-.6,1-1.7.84.73-1.09-.27-1.4.59-1.76.33.65.51.13.56-.43a4.64,4.64,0,0,1,2.92-.16c.22.74,1.87,1.59,3.81,2.12,1.61.45,6.33,0,2.8.52C279.5,12.16,275.88,11.42,273.31,11.55Zm9.61,117.21a2.18,2.18,0,0,1-.5-.66l-.26-.39c1.1.21,1.65-1,1.6.26A7.05,7.05,0,0,1,282.92,128.76Zm23.43-6.65c.46-.07.57-.43,1.14-.42.17.89-.15,1.37-1.13,1.3v-.66c0-.08-.07-.13-.1-.2Zm-3.9-1.89c-.72,1.85,1.78,1.26,2.19,2.26v.22a12.87,12.87,0,0,1-2.8-.18l-1.36-.16c-.06-.2-.14-.38-.2-.61l-.08-.28A2.22,2.22,0,0,1,302.45,120.22Zm-12.95,1c1.72-.67,4.27-.66,6.2-1.17a8.12,8.12,0,0,0,2.62,1.77l.07.23c.08.28.17.49.25.73a14.88,14.88,0,0,1-5.46.09,28.69,28.69,0,0,0-3.34-.24,4.31,4.31,0,0,1-.22-.49,3.89,3.89,0,0,0-.48-1Zm-.78.45a5.31,5.31,0,0,1,.22.6c.05.16.16.34.23.51a4.22,4.22,0,0,1-1.46-.09l.08-.17C287.61,121.82,288.12,121.7,288.72,121.66Zm20.37,5c-2.2.07-4.61-1.42-5.63.3-1.59-1.9-4.07-.42-6.15-2,.16.82-.16,1.25-1,1.26-.46-.13-.91-.26-1.35-.34a8.34,8.34,0,0,1-1.37-.33c-1.25-.65-6.16-1.24-5.85-1.29-.08,0-1.29,1.29,0-.45l-.06-.13a5.46,5.46,0,0,0,1,.15,3.73,3.73,0,0,0,.8-.1c.08,0,.15.08.24.08a29.4,29.4,0,0,1,3.24.23c.95.11,1.91.22,2.89.24a11.07,11.07,0,0,0,3.54-.47c.09,0,.15.09.25.1.61,0,1.21.13,1.82.21a20.67,20.67,0,0,0,2.52.27,8.29,8.29,0,0,0,1.21-.08c1,1,1.51.82,3.88,1.41.11-.5.56-.23.56,0C309.12,125.76,309.22,126.3,309.09,126.64Zm6.89-8.28c1.38-.41,1.2-.12,3.38-.37-.09.6,1.86,1.72.53,1.81,0-.28-.07-.53-.56-.47v.9C317.44,120.18,315.57,120.13,316,118.36Zm-3.52,8.82c-.54-.48-1.1-.93-1.67-1.39.1.39-.23.42-.57.43-.1-1.32,2-1.51,2.82-.82v.13a7.36,7.36,0,0,0,.12.8l-.13,0A.68.68,0,0,1,312.46,127.18Zm8.87-.55-1,.06c-.47,0-.93.08-1.4.07-1.38-1-2.54-.29-4.11-.84,0-.15,0-.29-.06-.44v0c1.56-1.22,3.68.72,6.14.19l.43-.1Zm3-4.93c1.22,1-.52,1.42.53,2.24l0,.07-.62-.13c-.14-.45-1-.36-1.65-.44C322.5,122.27,322.88,121.52,324.36,121.7Zm.47,5.36v0a4.34,4.34,0,0,1-.48-.14,8,8,0,0,0-2.19-.4V126c.43-.32.57-.89,1.55-.74v-.06l.77.16c1.67,1,4.8-1.73,4.85,1.39C327.6,127.59,326.42,126.09,324.83,127.06Zm18.1-5.76c-2.7-1.57-3.45-.14-5-1.47.95-.72,3.3-.27,5.07-.31C343,120.73,342,120.39,342.93,121.3Zm13.48.81a1.57,1.57,0,0,1,1.67.94A1.62,1.62,0,0,1,356.41,122.11Zm10.07,3.39c1.4.11,1.75-.65,2.82-.82A1.51,1.51,0,0,1,366.48,125.5Zm1.74-3.52c1.92.38.75-1.79,2.84-1.26C373.15,122,369.21,123.35,368.22,122Zm13.5-.09,0-1.33c1,.28,3.31-.46,3.36.53-.43.09-1.11,0-1.13.42.31,0,.63.38,0,.44C383.85,120.8,383,122.54,381.72,121.89Zm2.19,4.08a.67.67,0,0,0,.57-.88c1.4,0,2.33.29,2.8,1C385.75,126.22,384.64,126.41,383.91,126ZM395.18,22.38c-1.29.1-2.11-.16-2.23-.94,1-.2,1.15-.59.73-1.13a3.38,3.38,0,0,1,1.7.06C395.9,21,394.9,21.1,395.18,22.38Zm.6-2.65v.16a4,4,0,0,0-2.92,0l.12-.26C390.92,19.18,396.14,18.79,395.78,19.73ZM407.5,127.49c.77-1.1-2.6-1.15-.53-1.8.12,1.15,1-.58,2.25.06C409.69,127.19,408.33,127.12,407.5,127.49Zm.63-106.1c-.19-1.38,2.74-1.74,2.82-.37C409.19,20.76,409.44,22.52,408.13,21.39Zm6.2,101.38c-.25-1.74,3.76-2.28,5.08-1.21C416.54,121.24,416.71,123.93,414.33,122.77Zm17.5-110,1.17,0,0,1.91s0,0,0,0v.19c-1.41,0-1.35-1-2.23-1.4A1.65,1.65,0,0,0,431.83,12.76Zm-.69,113.58c.6-.46,4-.82,4.5.12C433.22,125.77,431.89,128.3,431.14,126.34Zm5.13-4.32c0-.27-.07-.53-.55-.46-.12.34,0,.87-.57.87,0-.73-1.56-.29-1.67-.93C433.78,120.71,438.51,121,436.27,122ZM434.7,14.54l0-1.58a3.29,3.29,0,0,1,.36,0l.51,0c1,.45,2.61.41,3,1.29C436.2,13.49,436,15.61,434.7,14.54Zm5.12-4.78-2.17-.06a2.85,2.85,0,0,1-.23-.26,1.69,1.69,0,0,1,.26-.48c.64-.14,1.66-.18,2,.29l.07.33c0,.06.11.06.17.1Zm25.81,3.81c-.47.07-.52-.18-.55-.45a.45.45,0,0,0,.14.1,4.85,4.85,0,0,1,.67.29Zm47.68,110.06c-1.38.41-1.21.11-3.39.36-.46-2,1.89-1.76,3.42-2.14Zm32.07-.93c-1.58-.12-3.86.28-3.92-1C542.73,122.07,545.86,121,545.38,122.7Zm10.67-.16h0c.67-.11,2.15-1.74,2.82-.37-.42,0-.47.32-.52.62l-.21,0a6.64,6.64,0,0,1-2.2.09C556,122.79,556,122.66,556.05,122.54ZM550,13.15l0-.05c.06,0,.09.06.15.07a5.44,5.44,0,0,1,1.59.42l-.08.05c-1.72.57.12,1.27-1.73,1.74C550.32,14,548.93,14,550,13.15Zm-2.37,109.62a5.08,5.08,0,0,1,6.68-.32c0,.15-.07.3-.12.45l-.18-.05a2.09,2.09,0,0,0-1.82,0L552,123a1.24,1.24,0,0,1-.5.27C550.6,122.67,548.19,122.34,547.63,122.77Zm13.22,3.56-.34-.1c-1.4,1.37-3.35-1.55-4.41.22-.21,0-.38,0-.6,0a5.9,5.9,0,0,0-1.86,0c-1.26-.41-6.54.1-5.49-1.46-.1.38.22.42.56.46-.76-2,3.36.08,3.39-1.25a2.37,2.37,0,0,0,.93-.56c.09,0,.2,0,.48.12a2.8,2.8,0,0,0,1.15.19s0,0,.05,0a1,1,0,0,0,.24,0h0a4.73,4.73,0,0,0,1.32.25,11.33,11.33,0,0,0,2.21-.24l.37-.06c.72.24,1.28.59,2,.84,0,.12,0,.22,0,.34A2.25,2.25,0,0,0,560.85,126.33Zm2.09-113.28c.48,0,.47-.41.55-.74l0,0a3.8,3.8,0,0,1,1.73.35l-.07,0C566.08,13.93,562.75,13.83,562.94,13.05Zm21.92,1,1.12,0c0,.45.45.55.55.91C585.65,15,584.58,15,584.86,14.08Zm5.58,2.83c0-.3,0-.6,0-.9,0-.14,0-.29,0-.44v0a.82.82,0,0,0,.19.09l.41,0a5.86,5.86,0,0,1,.65.11C592.25,16.4,591.85,17,590.44,16.91Zm27,2.06c-3.11,1.06-2.82-1.65,0,0ZM621,70.78c4.55-.93,3.12,1.42,0,0Zm20.11-53a1.42,1.42,0,0,0-.1,1.82l0,0c-2.8.36-3.33-1-5-1.47l-.05.11a5.84,5.84,0,0,1-.5-.62c0-.23,0-.45,0-.67.17,0,.32,0,.49,0a3.16,3.16,0,0,0,2.05-.43,1.36,1.36,0,0,0,.46-.9h.14a4.31,4.31,0,0,1,2.86,1.59A1.46,1.46,0,0,1,641.15,17.76Zm38,74.19c-1.41,0-1.75-.73-2.23-1.39l2.25.06C679.21,91.06,679.2,91.51,679.19,92Zm48.94,36.36a2.6,2.6,0,0,1-1.76-.71h0l.07,0c.88.06,2.14-.16,2.24.5l.25-.06A1.27,1.27,0,0,1,728.13,128.31Zm20.3-108.07c-1.36-.64-.34-.9-1.1-1.37-.1.52-1,.35-1.69.4l-.48-.13c0-.26.08-.52.09-.79,3-.41,4.13.57,6,.18C751.33,19.94,749.8,20,748.43,20.24Zm7.72.13s0,.05-.06.08c-1.52,0-2.85-.09-2.58-1.41l0-.06c.08,0,.13.08.22.09h.34c.42,0,.8.07,1.18.12a1.42,1.42,0,0,0,1,.8h.14Zm12.09-4.2-.06.14a3.31,3.31,0,0,1,1.1,1.36c-1.61.31-1.75-.5-2.09-1.15A4.47,4.47,0,0,1,768.24,16.17Zm-7,114.84a3.43,3.43,0,0,1-.77,0,5.24,5.24,0,0,1-.05-.53c.26-.26.26-.71.84-.7C761.23,130.21,761.23,130.61,761.22,131Zm-4.37-110.1-.31.07.24-.31.17-.21c2-.38,3.88.18,6.67-.26.22.94-.41,1.17-.6,1.77C760.52,22,760.32,21,756.85,20.91Zm10.06,106.38c-.35,2.06-4.35.35-4.49-.56,1.45-1.11,2.72.17,3.35,1,.61-.41.21-1.64,1.71-1.3l1.12,0c-.09,1.11.87,1.41,1.09,2.26C767.77,129,769,126.87,766.91,127.29Zm33.74,0h0a12.52,12.52,0,0,0-1.73.07l0-.12C797,126.15,801,125.34,800.65,127.3Zm4-103.78c-.78-1-1.74.71-1.67-.82l.16,0c.4-.07.69-.14,1-.21l0,.16h.49a6.66,6.66,0,0,0,.17.94Zm9,1.66h.06a7.18,7.18,0,0,1,1.69.23l-.08.18c.55,0,.43.56.54.91C814.38,26.59,813.46,26.27,813.6,25.18ZM817,23.86c-.1.52-1,.34-1.7.4l.05.11a11.6,11.6,0,0,0-1.61-.2l-.31,0c-.83-.18-.63-1.15-2-.89.67,1.46-1.82.29-1.15,1.75-2-.4-1.83-1.3-3.38-.09-.14-.72.55-.75.58-1.32-.95-.12-1.46.72-1.68,0l-.2.06,0-.09a7.86,7.86,0,0,1-.17-.91,19.32,19.32,0,0,0,5,.21c2.47-.13,4.79-.2,6.67,1Zm1.67,104.81a1.93,1.93,0,0,1-.59-.27v-.19c.35-.12,2.18-1.05,2.26.06A3.19,3.19,0,0,1,818.66,128.67Zm3.45-6.59c.49-.37,1.6.37,1.68.49C824.31,123.37,821.72,122.37,822.11,122.08Zm7.75-94.32c1.17.23,1.49-.26,2.25-.38l-.05-.12.57.32C832.65,29.1,830.32,28.7,829.86,27.76Zm3.44-.65c-.32-.17-.62-.35-.93-.53l.32-.07c.67-1.33-1.46-.55-1.16-1.59a4.09,4.09,0,0,1,1.79-.06.84.84,0,0,0,.52,0,2.45,2.45,0,0,1-.59,2.12Zm6.14-.87c1,.46,1.9-1.29,2.25.06C841.34,26.42,839.51,27.35,839.44,26.24Zm5.76,94.22c.25-1.06-1-1-.53-2.24,2.32,1.69,3.66-.79,5.05,1A14.5,14.5,0,0,0,845.2,120.46Zm44.93,1a2.6,2.6,0,0,1-1.13-.14c-.19-.86,1-1.68,1.19-.57C889.48,120.93,890,121.12,890.13,121.49Zm39.64-48.71c-.09-.11-.25-.17-.34-.28a.77.77,0,0,0,.34-.22C931,72.43,930.38,72.58,929.77,72.78Zm24.72,36.79c-.84.17.21.58,0,1.34v0a5.65,5.65,0,0,0-.89-.26c-.72-.14-1-.24-1.13-.59,0,0,0,0,0,0l.37-.08C951.94,108.85,954.73,108.71,954.49,109.57ZM933.24,68.43a.5.5,0,0,1,.09-.18c.11,0,.21,0,.33,0a.3.3,0,0,1,.14.22c.17.06.27,0,.32-.21.45,0,.92,0,1.34,0a2.28,2.28,0,0,1,.22.31,9.12,9.12,0,0,1-2.14.13l-.41-.32Zm-.74-8a5,5,0,0,1-.4-.4l.7.16A.5.5,0,0,1,932.5,60.46Zm8.8,1.22a6.56,6.56,0,0,1-2.13-.09c0-.17,0-.34,0-.51a5.91,5.91,0,0,1,2.12.4Zm1.22-2.14a19.66,19.66,0,0,0-4.89,0,1.23,1.23,0,0,1-.56-.57c1.42-.23,2.73-1,3.63.28.82-.17-.05-.39,0-.89a6.49,6.49,0,0,1,3.14.46,2.71,2.71,0,0,1,.11.58A5.26,5.26,0,0,0,942.52,59.54Zm3.8.32,0,0a.79.79,0,0,0-.23-.09c-1-.05-1.15-.19-1.15-.2a.55.55,0,0,0-.24-.18,3.5,3.5,0,0,0-.21-1h.2c.89.06,2.15-.16,2.24.5C946.34,59,946.44,59.52,946.32,59.86ZM969.1,53.2c1.26,0,1.64.38,1.41,1-.61,0-1.39.7-1.07,1.33-.35-.48-1.35-1.79-1.29-2.39ZM961,54.9h0L965,55c1,1.84,1.71.34,1.14,2.46-1.52-.33-2.46-.8-2-1.62-.91-.05-1.77-.06-2.58-.05l-.51-.45-.18,0C960.89,55.22,961,55,961,54.9Zm-2.92-1.34.84.32-.13.07c.11.43.86.39,1,.78l-.06.16C958.43,55.2,956.93,54,958.08,53.56Zm5.16,8.52c-.25,0-.49,0-.75.05l.08-.08c-1.44-.11-4.36-.91-4.26.74a6.92,6.92,0,0,1-2,0c-.11-.08-.2-.17-.3-.25h.21a.83.83,0,0,0-.44-.37C957.76,61.39,960.63,61.52,963.24,62.08Zm-12.66-1.32-.05-.07c-.17,0-.32-.06-.47-.09l.46-.08a1.45,1.45,0,0,1,.51.27A3.4,3.4,0,0,0,950.58,60.76Zm.73-2.63s.07,0,.09.08c.15.72-.53.76-.58,1.32a.83.83,0,0,0-.39-.09c-.25,0-.51.09-.77.14l0-.07c-.94-.33-.31-1.2.46-1.52Z"/>
        <path class="cls-1" d="M644.31,17.11a.63.63,0,0,0,.4.14.64.64,0,0,0,.41-.12c1.42-1.11,3.17-1.08,5.2-1.05l1,0c.07,0,.11.1.19.1l.26,0a4.31,4.31,0,0,1,.69-.17.83.83,0,0,0,.38-.17c.21,0,.43.07.64.09,1,2.85,4.21,1.19,7.28,1.53v-.37a5.21,5.21,0,0,0,1.2.57.72.72,0,0,0,.19,0,.53.53,0,0,0,.51-.26c.11-.22,0-.46-.3-.55a5.51,5.51,0,0,1-.7-.29,4.15,4.15,0,0,1,1.77-.38l.15.09a.6.6,0,0,0,.71-.09.35.35,0,0,0-.13-.56l-.41-.25h-.15a4.93,4.93,0,0,0-2.82.68v-.41c.24-1.15-1.73.67-2.15-.24,0-.12.07-.24.09-.37a3.07,3.07,0,0,1,.33-1c.49,0,1,.1,1.48.16a30.54,30.54,0,0,0,5.09.3.34.34,0,0,0,.35-.32.36.36,0,0,0-.41-.29,31.08,31.08,0,0,1-4.94-.29c-.59-.07-1.18-.14-1.75-.19l-.24,0-.13.16a3.19,3.19,0,0,0-.54,1.36c0,.12-.05.24-.08.36s.1.15.18.22l-.09.06c-1.45.21-3.33-1.26-4.37-.22l-.62-.1a.71.71,0,0,0-.1-.14c.07-.14.17-.29.23-.43a4.64,4.64,0,0,1,1.2-.06c.18,0,.35-.09.36-.24s-.12-.27-.31-.29a4.84,4.84,0,0,0-1.64.11l-.18,0,0,.15a4.15,4.15,0,0,1-.23.48h0l-.39.09v-.66a.32.32,0,0,0-.34-.28.31.31,0,0,0-.35.26l0,.89h-.82c-2.09,0-4.26-.08-6,1.3A.39.39,0,0,0,644.31,17.11Z"/>
        <path class="cls-1" d="M916.06,21.1a.62.62,0,0,0,.52.26.57.57,0,0,0,.26,0c.27-.12.39-.36.23-.58l0,0a4,4,0,0,1-.47-.76.59.59,0,0,0-.7-.32.44.44,0,0,0-.39.54A4.76,4.76,0,0,0,916.06,21.1Z"/>
        <path class="cls-1" d="M689.86,15.07a3.36,3.36,0,0,0,1.24-.24l0,0a.63.63,0,0,0,.76-.13.39.39,0,0,0-.17-.61l-.62-.31-.29.14c-1.05.49-1.33.14-1.45,0a.66.66,0,0,0-.77-.13.39.39,0,0,0-.15.61A1.86,1.86,0,0,0,689.86,15.07Z"/>
        <path class="cls-1" d="M634.87,13.72a2.36,2.36,0,0,1,1.53,0,6.1,6.1,0,0,0,1.08.16,2.55,2.55,0,0,0,.67-.07c.23-.05.37-.24.29-.43a.47.47,0,0,0-.55-.24,2.87,2.87,0,0,1-1.28-.1,3.47,3.47,0,0,0-2.18,0,.3.3,0,0,0-.16.47A.51.51,0,0,0,634.87,13.72Z"/>
        <path class="cls-1" d="M515.78,11.84a.48.48,0,0,0,.55.37.48.48,0,0,1,.16.16,1.26,1.26,0,0,0,1,.56,1.31,1.31,0,0,0,.33,0c.27-.05.44-.26.37-.49a.52.52,0,0,0-.62-.29h-.06s-.09-.11-.14-.16a1.23,1.23,0,0,0-1.13-.56C515.94,11.42,515.74,11.62,515.78,11.84Z"/>
        <path class="cls-1" d="M247.68,8.63l.25,0a1.86,1.86,0,0,1,.62.12.79.79,0,0,0,.34.1.6.6,0,0,0,.45-.17.39.39,0,0,0-.11-.63,3,3,0,0,0-1.14-.31l-.22,0a.56.56,0,0,0-.65.36A.48.48,0,0,0,247.68,8.63Z"/>
        <path class="cls-1" d="M235.39,8.22a4.36,4.36,0,0,1,1,.13h.09a.32.32,0,0,0,.31-.16.25.25,0,0,0-.2-.32,5.23,5.23,0,0,0-1.21-.16,3.24,3.24,0,0,1-1.52-.33.38.38,0,0,0-.44.05.23.23,0,0,0,.08.35A4,4,0,0,0,235.39,8.22Z"/>
        <path class="cls-1" d="M125.1,12.08h.07c.44-.07.88-.19,1.31-.3l.42-.11a.25.25,0,0,0,.21-.33.39.39,0,0,0-.42-.17l-.44.12a9.1,9.1,0,0,1-1.21.27c-.18,0-.3.16-.26.31A.32.32,0,0,0,125.1,12.08Z"/>
        <path class="cls-1" d="M28.82,35.33c.3.4,1.66,2,.54.91-2.07.49,3.18,1.31,1.1,1.81.22.87,1.62-.69,1.11,1.36.78-.15,1.63-2.48,2.26-1.27,1.32-.08.36-2,0-2.23l1.12,0,0-.09a9,9,0,0,0,2.31.38,23.07,23.07,0,0,0,6.5-1.09l.34-.09a.7.7,0,0,0,.64-.28c.13-.25.11-.5-.22-.61l-.23.47.1-.52-.23-.06h-.36l-.48.13c-2.36.65-5.22,1.36-7.64.76.33-.41,1.37-.22,2.14-.27-.18-.91.14-1.4,1.15-1.31-4.2-1.4-5.12-2.32-9-1.13C31.18,33.91,30.91,34.48,28.82,35.33Z"/>
        <path class="cls-1" d="M66.09,37.87a6,6,0,0,0,.83.08,7,7,0,0,0,4.76-1.85.37.37,0,0,0,0-.62.64.64,0,0,0-.78,0A5.6,5.6,0,0,1,66.28,37c-.34,0-.59.11-.64.35A.46.46,0,0,0,66.09,37.87Z"/>
        <path class="cls-1" d="M952.86,70.39a.56.56,0,0,0,.31.09.61.61,0,0,0,.41-.15,1.47,1.47,0,0,0,.31-1.13v-.28l-.33-.11c-.06,0-.26-.15-.39-1a.47.47,0,0,0-.57-.36.43.43,0,0,0-.45.45,2.5,2.5,0,0,0,.07.26c-1.53-.25-.93.64.14.55a1.41,1.41,0,0,0,.52.72.68.68,0,0,1-.09.41A.35.35,0,0,0,952.86,70.39Z"/>
        <path class="cls-1" d="M960.8,73.22l.39-.11a4.31,4.31,0,0,1,1.72,0l.49,0h0a.47.47,0,0,0,.51-.36.46.46,0,0,0-.47-.44l-.45,0a5.94,5.94,0,0,0-1.84,0A8.56,8.56,0,0,0,956,70.19a.49.49,0,0,0-.55.35.43.43,0,0,0,.44.45c1.51.16,3.54.63,4.66,2Z"/>
        <path class="cls-1" d="M8.67,45.94a.31.31,0,0,0,.19,0c.42-.24.85-.45,1.27-.64l.41-.2a.2.2,0,0,0,.09-.31.36.36,0,0,0-.41-.08l-.4.18c-.42.21-.87.42-1.32.68a.19.19,0,0,0-.05.32A.29.29,0,0,0,8.67,45.94Z"/>
        <path class="cls-1" d="M879.15,122.52a3.24,3.24,0,0,0-2.06.76.36.36,0,0,0,.06.59.64.64,0,0,0,.33.1.55.55,0,0,0,.4-.13,2.08,2.08,0,0,1,1.34-.49.46.46,0,0,0,.49-.44C879.69,122.68,879.47,122.53,879.15,122.52Z"/>
        <path class="cls-1" d="M58.71,112.52a.51.51,0,0,0-.6.23c0,.08-.08.18-.14.3s-.18.37-.27.57-.42.25-.62.39c-.21-.09-.41-.19-.63-.3a4.12,4.12,0,0,0-2.49-.56v-.91c-.72.58-3,.78-2.23-.95-1.32.11-2.12.65-3.94.34.27-.95-.79-.87-1.68-.94l-.1.08s0,0,0,0a4.34,4.34,0,0,0-2.23-.6c-.47,0-1,.23-1,.62a.74.74,0,0,0,.76.78,7.9,7.9,0,0,1,1,.15,2.19,2.19,0,0,1,.44,1.64,3.8,3.8,0,0,1,2.26-.39c-.55.82,1.66,1.54,0,1.78,0,1.58,1.87-.9,1.68.49l.22,0-.06,0a2.33,2.33,0,0,1-.59.43.23.23,0,0,0-.15.34.31.31,0,0,0,.28.15.23.23,0,0,0,.14,0,2.27,2.27,0,0,0,.75-.51l0,.07c1.45.87,3.25-1,4.54-1.66l-.07-.09a2.7,2.7,0,0,1,2.06.42,6.69,6.69,0,0,0,1,.47l.3.09.21-.17a5.25,5.25,0,0,1,.81-.52l.13-.07.12-.16c.09-.24.21-.46.3-.65s.12-.25.15-.33A.39.39,0,0,0,58.71,112.52Z"/>
        <path class="cls-1" d="M63.77,115.84l-.18-.08a1.09,1.09,0,0,1-.54-.52.49.49,0,0,0-.57-.19.32.32,0,0,0-.23.45,2.05,2.05,0,0,0,.73.76,2.57,2.57,0,0,1-.21.81c-.07.18.06.37.29.42l.12,0a.42.42,0,0,0,.41-.24A2,2,0,0,0,63.8,116Z"/>
        <path class="cls-1" d="M56.72,118.17a5.9,5.9,0,0,1-.46.39c-.46.36-.94.73-.74,1.17a.37.37,0,0,0,.31.18h.11a.26.26,0,0,0,.2-.34c-.06-.12.33-.42.59-.63a4.31,4.31,0,0,0,.5-.43.22.22,0,0,0,0-.36A.39.39,0,0,0,56.72,118.17Z"/>
        <path class="cls-1" d="M180.61,124.32l1.13,0A1.52,1.52,0,0,0,180.61,124.32Z"/>
        <path class="cls-1" d="M172.47,17.73a.86.86,0,0,0,.34.09.66.66,0,0,0,.51-.2c.13-.16.2-.19.86,0a4.52,4.52,0,0,0,.82.18l.18,0,.16-.06a5.08,5.08,0,0,0,.56-.29,3.78,3.78,0,0,1,1-.47.48.48,0,0,0,.41-.6.68.68,0,0,0-.77-.33,4.55,4.55,0,0,0-1.44.62l-.2.11-.37-.1a2.07,2.07,0,0,0-2.26.34A.43.43,0,0,0,172.47,17.73Z"/>
        <path class="cls-1" d="M146.88,139.94a.66.66,0,0,0-.8.18,1.68,1.68,0,0,0,0,2.3.71.71,0,0,0,.47.19.69.69,0,0,0,.37-.1.41.41,0,0,0,.11-.66c-.35-.35-.32-.68.08-1.26A.43.43,0,0,0,146.88,139.94Z"/>
      </g>
    </g>
  </g>
</svg>
