<?xml version="1.0" standalone="no"?>
<!DOCTYPE svg PUBLIC "-//W3C//DTD SVG 20010904//EN"
 "http://www.w3.org/TR/2001/REC-SVG-20010904/DTD/svg10.dtd">
<svg version="1.0" xmlns="http://www.w3.org/2000/svg"
 width="119.000000pt" height="119.000000pt" viewBox="0 0 119.000000 119.000000"
 preserveAspectRatio="xMidYMid meet">
<metadata>
Created by potrace 1.11, written by Peter Selinger 2001-2013
</metadata>
<g transform="translate(0.000000,119.000000) scale(0.100000,-0.100000)"
fill="#000000" stroke="none">
<path d="M459 1166 c-201 -56 -363 -225 -394 -411 -6 -37 -5 -36 19 18 107
253 347 384 629 344 57 -8 59 -8 55 14 -2 17 -13 27 -43 35 -52 16 -208 16
-266 0z"/>
<path d="M481 1085 c-30 -9 -57 -18 -60 -20 -2 -3 79 -5 180 -4 175 0 182 1
144 15 -60 23 -199 27 -264 9z"/>
<path d="M900 1066 c0 -8 33 -46 73 -85 40 -39 90 -99 111 -133 41 -68 40 -46
-2 42 -15 33 -53 82 -93 123 -66 66 -89 80 -89 53z"/>
<path d="M496 984 c-52 -28 -57 -33 -40 -42 42 -25 3 -10 -74 28 l-83 41 -27
-20 c-53 -38 -109 -112 -148 -194 -38 -82 -37 -84 56 -100 25 -5 41 -18 34
-28 -3 -6 -7 -26 -8 -45 -1 -28 3 -36 21 -40 13 -4 23 -10 23 -15 0 -5 10 -14
23 -19 18 -7 14 -9 -24 -9 -52 -1 -64 -8 -48 -28 14 -16 46 -17 52 0 3 6 6 -2
6 -19 1 -16 6 -35 12 -41 7 -7 2 -12 -19 -16 -34 -7 -46 -30 -32 -58 13 -23
26 -25 28 -4 1 8 3 21 4 29 1 11 8 12 32 4 17 -5 36 -10 43 -11 7 0 14 -6 17
-13 6 -16 36 -7 36 11 0 20 48 5 81 -26 33 -31 69 -38 69 -15 0 20 -17 29 -23
14 -3 -7 -5 15 -5 50 0 34 3 60 6 57 3 -3 5 -24 5 -47 -1 -33 1 -37 6 -18 6
22 8 23 14 7 11 -28 31 -15 38 24 l6 34 2 -38 c1 -30 -3 -39 -22 -48 -18 -8
-22 -17 -19 -39 9 -62 74 -80 150 -41 28 14 51 19 74 15 32 -5 32 -5 10 9 -21
12 -22 15 -8 26 13 11 16 11 16 -3 0 -9 6 -16 13 -16 15 0 50 34 42 41 -2 3 4
5 15 5 10 0 16 -5 13 -10 -4 -5 1 -7 10 -3 29 11 19 -9 -22 -46 -50 -45 -95
-69 -115 -61 -10 4 -16 1 -16 -9 0 -16 -41 -27 -102 -27 -38 0 -39 -1 -36 -32
2 -26 8 -34 26 -36 13 -2 32 4 42 13 14 13 19 13 23 3 4 -11 7 -10 15 1 5 7
15 10 21 7 6 -4 20 -4 32 -1 16 6 19 12 14 36 -4 19 -3 29 5 29 6 0 8 -5 4
-12 -5 -7 0 -9 14 -6 19 5 20 3 11 -13 -11 -22 -2 -24 24 -4 13 9 17 21 12 37
-6 21 -5 22 9 5 9 -12 16 -15 21 -7 4 6 1 18 -6 26 -10 12 -10 17 1 27 7 7 10
7 7 2 -3 -6 -2 -17 3 -24 11 -18 44 -5 37 14 -4 9 -1 12 9 8 19 -7 18 11 -1
27 -23 19 -19 26 30 57 25 15 45 31 45 36 0 4 7 7 15 7 8 0 15 4 15 10 0 13
-44 23 -75 18 -30 -6 -32 5 -5 32 13 13 33 20 56 20 24 0 34 4 32 13 -5 13 -8
14 -60 16 -32 2 -33 2 -13 19 11 9 19 24 17 34 -2 9 2 19 7 23 15 9 14 52 -1
58 -21 9 9 24 73 36 34 7 59 17 59 24 0 29 -70 156 -111 200 l-44 48 -79 -36
-78 -37 -37 35 c-35 34 -101 61 -85 36 5 -9 2 -10 -10 -6 -10 4 -26 7 -37 7
-13 0 -19 7 -19 22 0 20 -3 19 -37 -13 -35 -32 -36 -33 -19 -6 10 16 16 30 14
31 -2 1 -29 -12 -62 -30z m138 -49 c-4 -8 -7 -15 -9 -15 -2 0 -5 7 -9 15 -3 9
0 15 9 15 9 0 12 -6 9 -15z m-106 -12 c-21 -5 -24 -23 -5 -23 9 0 12 -11 9
-33 -3 -25 3 -41 22 -64 25 -30 26 -35 24 -149 -1 -66 -3 -100 -5 -78 -3 28
-12 49 -29 64 -15 15 -24 35 -24 55 0 17 -5 36 -10 41 -8 8 -7 14 3 23 11 9
17 8 26 -3 8 -10 9 -16 1 -21 -14 -9 -13 -68 2 -83 23 -23 28 -12 28 54 0 56
-4 71 -25 96 -14 16 -25 42 -25 57 0 15 -5 32 -11 38 -14 14 -3 33 19 32 15
-1 15 -2 0 -6z m212 -27 c0 -2 -12 -12 -27 -21 l-28 -18 19 21 c17 20 36 29
36 18z m-78 -68 c-7 -7 -12 -22 -12 -34 0 -12 -7 -27 -15 -34 -10 -9 -15 -31
-15 -73 l0 -60 23 19 22 19 -22 -25 c-12 -14 -23 -43 -26 -65 -2 -22 -4 8 -5
66 -2 84 1 109 13 119 8 7 15 25 15 41 0 16 5 29 11 29 6 0 8 7 4 18 -5 14 -4
15 6 5 10 -10 10 -16 1 -25z m84 -39 c3 -6 1 -16 -5 -22 -6 -6 -11 -32 -11
-57 0 -37 -5 -52 -25 -70 -15 -14 -26 -36 -26 -54 l-2 -31 -4 29 c-3 21 2 36
23 57 25 26 26 33 21 88 -3 33 -2 62 1 65 9 9 20 7 28 -5z m-408 -15 c13 -9
22 -26 22 -42 0 -21 19 -46 80 -107 89 -88 103 -112 21 -35 -36 33 -62 50 -80
50 -14 0 -35 7 -45 15 -11 8 -30 15 -42 15 -29 0 -54 25 -53 53 l0 22 16 -22
c18 -27 38 -29 60 -8 14 14 13 18 -3 38 -11 12 -23 25 -29 29 -20 15 31 7 53
-8z m612 -6 c0 -7 -5 -20 -10 -28 -8 -13 -12 -12 -29 7 -19 20 -19 22 -3 26
32 8 42 7 42 -5z m-296 -43 c-4 -8 -1 -15 4 -15 6 0 13 8 15 18 4 15 5 15 6 0
0 -9 -4 -20 -10 -24 -14 -8 -33 11 -25 25 10 16 16 13 10 -4z m241 -5 c19 -21
13 -42 -6 -23 -6 6 -19 9 -28 6 -24 -9 -61 -45 -61 -60 0 -8 -4 -12 -9 -9 -5
3 -30 -17 -56 -45 -26 -28 -49 -49 -51 -47 -5 5 176 198 185 198 4 0 16 -9 26
-20z m-477 -205 c-3 -3 -9 2 -12 12 -6 14 -5 15 5 6 7 -7 10 -15 7 -18z m159
-17 c-3 -8 -6 -5 -6 6 -1 11 2 17 5 13 3 -3 4 -12 1 -19z m253 13 c0 -5 -9 -7
-20 -4 -11 3 -20 7 -20 9 0 2 9 4 20 4 11 0 20 -4 20 -9z m-543 -38 c-3 -10
-5 -4 -5 12 0 17 2 24 5 18 2 -7 2 -21 0 -30z m20 -10 c-3 -10 -5 -4 -5 12 0
17 2 24 5 18 2 -7 2 -21 0 -30z m410 -5 c-3 -8 -6 -5 -6 6 -1 11 2 17 5 13 3
-3 4 -12 1 -19z m-291 1 c7 -12 -12 -29 -34 -29 -10 0 -10 5 -2 20 12 22 25
26 36 9z m384 -3 c0 -3 -4 -8 -10 -11 -5 -3 -10 -1 -10 4 0 6 5 11 10 11 6 0
10 -2 10 -4z m-445 -37 c-4 -5 -12 -9 -18 -8 -9 0 -8 2 1 6 6 2 9 10 6 15 -4
7 -2 8 5 4 6 -4 9 -12 6 -17z m385 -14 c0 -1 -8 -10 -19 -19 -17 -16 -18 -16
-14 8 3 16 10 23 19 19 8 -3 14 -6 14 -8z m-120 -5 c0 -5 -5 -10 -11 -10 -5 0
-7 5 -4 10 3 6 8 10 11 10 2 0 4 -4 4 -10z m50 -52 c-26 -21 -39 -16 -20 7 10
12 10 15 -1 15 -11 0 -11 2 1 10 9 6 19 5 28 -3 12 -9 10 -14 -8 -29z m-52
-19 c12 0 9 -3 -7 -10 -13 -5 -32 -7 -42 -4 -15 5 -16 10 -7 30 11 25 11 25
25 5 8 -11 22 -20 31 -21z m72 -119 c-8 -5 -17 -7 -19 -4 -3 3 1 9 9 14 8 5
17 7 19 4 3 -3 -1 -9 -9 -14z m40 0 c0 -5 -5 -10 -11 -10 -5 0 -7 5 -4 10 3 6
8 10 11 10 2 0 4 -4 4 -10z"/>
<path d="M516 751 c-4 -5 -2 -12 3 -15 5 -4 12 -2 15 3 4 5 2 12 -3 15 -5 4
-12 2 -15 -3z"/>
<path d="M720 780 c0 -5 5 -10 10 -10 6 0 10 5 10 10 0 6 -4 10 -10 10 -5 0
-10 -4 -10 -10z"/>
<path d="M635 1010 c3 -5 16 -10 28 -10 18 0 19 2 7 10 -20 13 -43 13 -35 0z"/>
<path d="M77 650 c-10 -38 -8 -70 4 -70 6 0 9 9 6 20 -3 10 -2 20 2 22 4 2 4
14 1 28 l-6 25 -7 -25z"/>
<path d="M1109 655 c-5 -28 -4 -67 3 -71 14 -9 20 24 10 53 -6 15 -11 24 -13
18z"/>
<path d="M40 580 c0 -11 9 -29 21 -41 19 -19 22 -20 39 -4 22 20 34 58 17 52
-7 -2 -17 -14 -24 -27 l-11 -23 -16 32 c-19 36 -26 39 -26 11z"/>
<path d="M1070 581 c0 -11 10 -31 21 -42 l21 -21 25 25 c14 14 23 32 21 43 -3
16 -8 13 -25 -15 -19 -30 -22 -31 -27 -13 -4 11 -13 26 -21 32 -12 10 -15 9
-15 -9z"/>
<path d="M988 583 c6 -2 18 -2 25 0 6 3 1 5 -13 5 -14 0 -19 -2 -12 -5z"/>
<path d="M40 515 c0 -18 43 -65 59 -65 14 0 31 34 31 61 0 18 -2 19 -15 9 -8
-7 -15 -22 -16 -34 0 -21 0 -21 -10 -1 -6 12 -19 26 -30 33 -16 10 -19 9 -19
-3z"/>
<path d="M1070 504 c0 -62 58 -67 81 -7 13 35 7 38 -24 9 -15 -14 -27 -22 -27
-17 0 4 -7 16 -15 27 -14 18 -14 17 -15 -12z"/>
<path d="M1050 438 c0 -48 11 -61 43 -49 24 9 54 47 44 57 -2 2 -15 -5 -30
-16 -32 -26 -37 -25 -37 4 0 14 -4 28 -10 31 -6 4 -10 -7 -10 -27z"/>
<path d="M58 439 c5 -13 21 -32 35 -43 22 -16 29 -17 42 -6 16 13 21 70 6 70
-12 0 -23 -29 -15 -41 10 -16 -7 -9 -42 17 l-34 27 8 -24z"/>
<path d="M297 363 c5 -12 2 -15 -10 -10 -27 10 -33 -31 -7 -55 20 -18 23 -19
39 -4 24 21 31 20 31 -5 0 -15 -5 -19 -15 -15 -8 3 -15 1 -15 -5 0 -5 8 -13
18 -16 9 -4 20 -11 24 -17 5 -7 13 -3 23 12 9 12 21 20 26 16 6 -3 3 -12 -8
-20 -17 -13 -17 -15 7 -34 24 -18 26 -18 39 -2 13 16 13 16 8 0 -7 -19 8 -34
18 -18 4 6 14 1 25 -12 10 -13 22 -20 26 -15 4 4 3 12 -4 19 -8 8 -6 16 8 28
20 17 19 18 -22 29 -69 17 -148 68 -160 102 -5 16 -14 29 -20 29 -5 0 -6 -6
-3 -12 4 -7 0 -5 -8 5 -18 22 -28 22 -20 0z m13 -48 c-12 -15 -30 -12 -30 5 0
8 31 19 39 13 2 -1 -2 -9 -9 -18z m195 -95 c3 -5 -1 -10 -10 -10 -9 0 -13 5
-10 10 3 6 8 10 10 10 2 0 7 -4 10 -10z"/>
<path d="M96 356 c5 -14 53 -41 67 -38 4 1 7 -6 5 -15 -2 -11 2 -17 10 -15 7
1 12 -3 10 -10 -2 -7 1 -14 5 -15 5 -1 15 -10 23 -20 14 -17 14 -17 5 3 -6 12
-7 25 -3 29 4 5 1 4 -7 0 -11 -6 -13 -4 -8 9 5 11 3 15 -5 10 -8 -5 -9 -2 -5
9 3 9 3 16 -2 14 -5 -1 -17 7 -27 18 -11 11 -16 16 -11 11 15 -21 6 -30 -11
-11 -21 26 -53 40 -46 21z"/>
<path d="M1033 333 c-9 -13 -19 -20 -24 -17 -5 3 -6 -3 -2 -12 4 -12 3 -15 -5
-10 -8 5 -10 1 -5 -10 5 -13 3 -15 -8 -9 -12 8 -12 6 0 -8 16 -20 33 -13 24
10 -4 11 -3 14 6 9 6 -4 11 -4 10 1 -1 4 -1 15 0 23 1 13 3 13 12 0 9 -13 10
-12 5 2 -3 10 -2 17 2 16 12 -3 52 13 52 22 0 17 -53 4 -67 -17z"/>
<path d="M110 304 c0 -16 66 -98 120 -148 71 -66 153 -110 242 -131 88 -20
118 -20 118 4 0 57 -91 125 -204 150 -28 6 -64 20 -81 31 -69 45 -74 14 -7
-48 29 -28 38 -40 22 -32 -45 23 -107 79 -145 130 -20 27 -43 50 -51 50 -8 0
-14 -3 -14 -6z"/>
<path d="M1055 300 c-4 -6 -11 -8 -16 -5 -5 3 -6 -1 -3 -9 7 -18 -97 -126
-146 -151 -34 -18 -34 -17 13 28 26 25 47 51 47 57 0 16 -30 12 -56 -9 -13
-10 -54 -26 -92 -35 -85 -21 -140 -52 -169 -95 -48 -71 -26 -84 95 -56 89 21
171 65 242 131 54 50 120 132 120 148 0 10 -29 7 -35 -4z"/>
</g>
</svg>
